<?xml version="1.0" encoding="utf-8" standalone="no"?>
<!DOCTYPE svg PUBLIC "-//W3C//DTD SVG 1.1//EN"
  "http://www.w3.org/Graphics/SVG/1.1/DTD/svg11.dtd">
<svg xmlns:xlink="http://www.w3.org/1999/xlink" width="631.164757pt" height="285.488864pt" viewBox="0 0 631.164757 285.488864" xmlns="http://www.w3.org/2000/svg" version="1.1">
 <metadata>
  <rdf:RDF xmlns:dc="http://purl.org/dc/elements/1.1/" xmlns:cc="http://creativecommons.org/ns#" xmlns:rdf="http://www.w3.org/1999/02/22-rdf-syntax-ns#">
   <cc:Work>
    <dc:type rdf:resource="http://purl.org/dc/dcmitype/StillImage"/>
    <dc:date>2022-10-11T22:22:52.889336</dc:date>
    <dc:format>image/svg+xml</dc:format>
    <dc:creator>
     <cc:Agent>
      <dc:title>Matplotlib v3.5.1, https://matplotlib.org/</dc:title>
     </cc:Agent>
    </dc:creator>
   </cc:Work>
  </rdf:RDF>
 </metadata>
 <defs>
  <style type="text/css">*{stroke-linejoin: round; stroke-linecap: butt}</style>
 </defs>
 <g id="figure_1">
  <g id="patch_1">
   <path d="M 0 285.488864 
L 631.164757 285.488864 
L 631.164757 0 
L 0 0 
z
" style="fill: #ffffff"/>
  </g>
  <g id="axes_1">
   <g id="matplotlib.axis_1"/>
   <g id="matplotlib.axis_2"/>
   <g id="patch_2">
    <path d="M 270.257535 151.470682 
C 270.257535 130.918704 264.012613 110.843891 252.354115 93.918668 
C 240.695616 76.993445 224.164901 64.003732 204.962594 56.678763 
C 185.760286 49.353795 164.778043 48.033704 144.80909 52.894226 
C 124.840136 57.754749 106.811729 68.570186 93.123868 83.900752 
L 168.80299 151.470682 
L 270.257535 151.470682 
z
" style="fill: #ff7a6c; stroke: #ffffff; stroke-width: 0.8; stroke-linejoin: miter"/>
   </g>
   <g id="patch_3">
    <path d="M 93.123868 83.900752 
C 81.9587 96.405873 74.065169 111.48557 70.15164 127.786592 
C 66.238112 144.087615 66.425261 161.107311 70.696295 177.318335 
C 74.967328 193.52936 83.190544 208.431836 94.627994 220.688417 
C 106.065444 232.944998 120.364446 242.177745 136.24181 247.558113 
L 168.80299 151.470682 
L 93.123868 83.900752 
z
" style="fill: #f7e967; stroke: #ffffff; stroke-width: 0.8; stroke-linejoin: miter"/>
   </g>
   <g id="patch_4">
    <path d="M 136.24181 247.558113 
C 151.506683 252.730925 167.78674 254.192473 183.728878 251.82128 
C 199.671017 249.450088 214.82098 243.31372 227.919591 233.922196 
C 241.018202 224.530672 251.692228 212.151595 259.054507 197.813841 
C 266.416785 183.476087 270.257535 167.588198 270.257535 151.470682 
L 168.80299 151.470682 
L 136.24181 247.558113 
z
" style="fill: #a9cf54; stroke: #ffffff; stroke-width: 0.8; stroke-linejoin: miter"/>
   </g>
   <g id="text_1">
    <!-- Negative -->
    <g style="fill: #808080" transform="translate(208.578554 50.736759)scale(0.14 -0.14)">
     <defs>
      <path id="Arial-BoldItalicMT-4e" d="M 3925 0 
L 3047 0 
L 1809 3078 
L 1166 0 
L 288 0 
L 1244 4581 
L 2125 4581 
L 3366 1516 
L 4006 4581 
L 4881 4581 
L 3925 0 
z
" transform="scale(0.015625)"/>
      <path id="Arial-BoldItalicMT-65" d="M 3488 1381 
L 1238 1381 
Q 1234 1328 1234 1300 
Q 1234 969 1423 766 
Q 1613 563 1884 563 
Q 2331 563 2581 1025 
L 3384 891 
Q 3150 406 2758 164 
Q 2366 -78 1878 -78 
Q 1209 -78 790 345 
Q 372 769 372 1466 
Q 372 2147 750 2678 
Q 1266 3397 2222 3397 
Q 2831 3397 3190 3020 
Q 3550 2644 3550 1966 
Q 3550 1641 3488 1381 
z
M 2731 1928 
Q 2734 1988 2734 2019 
Q 2734 2388 2568 2572 
Q 2403 2756 2125 2756 
Q 1847 2756 1626 2547 
Q 1406 2338 1328 1928 
L 2731 1928 
z
" transform="scale(0.015625)"/>
      <path id="Arial-BoldItalicMT-67" d="M 209 -175 
L 1156 -313 
Q 1156 -456 1203 -529 
Q 1250 -603 1354 -654 
Q 1459 -706 1641 -706 
Q 1925 -706 2097 -594 
Q 2225 -506 2306 -313 
Q 2356 -191 2434 219 
L 2466 375 
Q 2000 -13 1503 -13 
Q 1016 -13 703 331 
Q 391 675 391 1338 
Q 391 1922 603 2409 
Q 816 2897 1200 3147 
Q 1584 3397 1984 3397 
Q 2316 3397 2591 3222 
Q 2866 3047 3019 2731 
L 3144 3319 
L 3984 3319 
L 3409 553 
Q 3269 -113 3172 -397 
Q 3075 -681 2950 -850 
Q 2825 -1019 2634 -1133 
Q 2444 -1247 2184 -1297 
Q 1925 -1347 1622 -1347 
Q 919 -1347 559 -1106 
Q 200 -866 200 -306 
Q 200 -247 209 -175 
z
M 1266 1428 
Q 1266 1050 1436 851 
Q 1606 653 1863 653 
Q 2097 653 2317 831 
Q 2538 1009 2655 1337 
Q 2772 1666 2772 1972 
Q 2772 2325 2581 2540 
Q 2391 2756 2141 2756 
Q 1900 2756 1698 2565 
Q 1497 2375 1366 1978 
Q 1266 1672 1266 1428 
z
" transform="scale(0.015625)"/>
      <path id="Arial-BoldItalicMT-61" d="M 1522 2378 
L 647 2453 
Q 797 2897 1170 3147 
Q 1544 3397 2159 3397 
Q 2800 3397 3106 3139 
Q 3413 2881 3413 2509 
Q 3413 2359 3386 2190 
Q 3359 2022 3200 1303 
Q 3069 709 3069 472 
Q 3069 259 3144 0 
L 2272 0 
Q 2219 181 2206 375 
Q 2009 156 1753 39 
Q 1497 -78 1238 -78 
Q 825 -78 556 192 
Q 288 463 288 888 
Q 288 1363 583 1647 
Q 878 1931 1638 1991 
Q 2278 2044 2494 2119 
Q 2550 2306 2550 2419 
Q 2550 2563 2434 2659 
Q 2319 2756 2091 2756 
Q 1850 2756 1711 2657 
Q 1572 2559 1522 2378 
z
M 2375 1547 
Q 2294 1525 2159 1506 
Q 1484 1425 1278 1269 
Q 1131 1156 1131 966 
Q 1131 809 1243 701 
Q 1356 594 1541 594 
Q 1744 594 1923 692 
Q 2103 791 2192 945 
Q 2281 1100 2350 1428 
L 2375 1547 
z
" transform="scale(0.015625)"/>
      <path id="Arial-BoldItalicMT-74" d="M 481 2653 
L 619 3319 
L 1056 3319 
L 1166 3850 
L 2194 4469 
L 1953 3319 
L 2500 3319 
L 2363 2653 
L 1813 2653 
L 1522 1263 
Q 1444 884 1444 831 
Q 1444 728 1509 670 
Q 1575 613 1747 613 
Q 1806 613 2044 634 
L 1903 -31 
Q 1672 -78 1428 -78 
Q 953 -78 737 105 
Q 522 288 522 613 
Q 522 766 638 1319 
L 916 2653 
L 481 2653 
z
" transform="scale(0.015625)"/>
      <path id="Arial-BoldItalicMT-69" d="M 1213 4581 
L 2109 4581 
L 1941 3769 
L 1044 3769 
L 1213 4581 
z
M 950 3319 
L 1847 3319 
L 1153 0 
L 256 0 
L 950 3319 
z
" transform="scale(0.015625)"/>
      <path id="Arial-BoldItalicMT-76" d="M 1916 0 
L 1144 0 
L 478 3319 
L 1359 3319 
L 1594 1872 
Q 1691 1284 1709 1091 
Q 1734 1144 1926 1495 
Q 2119 1847 2163 1919 
L 2988 3319 
L 3956 3319 
L 1916 0 
z
" transform="scale(0.015625)"/>
     </defs>
     <use xlink:href="#Arial-BoldItalicMT-4e"/>
     <use xlink:href="#Arial-BoldItalicMT-65" x="72.216797"/>
     <use xlink:href="#Arial-BoldItalicMT-67" x="127.832031"/>
     <use xlink:href="#Arial-BoldItalicMT-61" x="188.916016"/>
     <use xlink:href="#Arial-BoldItalicMT-74" x="244.53125"/>
     <use xlink:href="#Arial-BoldItalicMT-69" x="277.832031"/>
     <use xlink:href="#Arial-BoldItalicMT-76" x="305.615234"/>
     <use xlink:href="#Arial-BoldItalicMT-65" x="361.230469"/>
    </g>
   </g>
   <g id="text_2">
    <!-- 38.40% -->
    <g style="fill: #808080" transform="translate(166.758908 98.221312)scale(0.14 -0.14)">
     <defs>
      <path id="Arial-BoldItalicMT-33" d="M 325 1197 
L 1184 1300 
Q 1238 934 1377 793 
Q 1516 653 1747 653 
Q 2053 653 2254 859 
Q 2456 1066 2456 1388 
Q 2456 1669 2293 1833 
Q 2131 1997 1856 1997 
Q 1788 1997 1713 1984 
L 1869 2731 
Q 1916 2725 1959 2725 
Q 2319 2725 2506 2908 
Q 2694 3091 2694 3403 
Q 2694 3625 2567 3753 
Q 2441 3881 2234 3881 
Q 2041 3881 1887 3739 
Q 1734 3597 1644 3253 
L 825 3416 
Q 981 3922 1259 4194 
Q 1681 4600 2297 4600 
Q 2928 4600 3256 4248 
Q 3584 3897 3584 3406 
Q 3584 3050 3375 2762 
Q 3166 2475 2800 2341 
Q 3091 2188 3228 1944 
Q 3366 1700 3366 1434 
Q 3366 928 3006 503 
Q 2516 -78 1741 -78 
Q 1159 -78 782 255 
Q 406 588 325 1197 
z
" transform="scale(0.015625)"/>
      <path id="Arial-BoldItalicMT-38" d="M 1375 2522 
Q 1134 2681 1014 2889 
Q 894 3097 894 3350 
Q 894 3644 1062 3947 
Q 1231 4250 1567 4425 
Q 1903 4600 2328 4600 
Q 2941 4600 3284 4281 
Q 3628 3963 3628 3475 
Q 3628 3131 3434 2876 
Q 3241 2622 2853 2453 
Q 3134 2281 3273 2036 
Q 3413 1791 3413 1475 
Q 3413 956 3081 531 
Q 2600 -81 1766 -81 
Q 1159 -81 790 276 
Q 422 634 422 1188 
Q 422 1647 678 2009 
Q 934 2372 1375 2522 
z
M 1716 3291 
Q 1716 3075 1847 2942 
Q 1978 2809 2188 2809 
Q 2428 2809 2611 2992 
Q 2794 3175 2794 3419 
Q 2794 3641 2659 3778 
Q 2525 3916 2316 3916 
Q 2069 3916 1892 3734 
Q 1716 3553 1716 3291 
z
M 1316 1172 
Q 1316 916 1456 769 
Q 1597 622 1822 622 
Q 2169 622 2358 928 
Q 2547 1234 2547 1594 
Q 2547 1825 2401 1973 
Q 2256 2122 2031 2122 
Q 1750 2122 1533 1862 
Q 1316 1603 1316 1172 
z
" transform="scale(0.015625)"/>
      <path id="Arial-BoldItalicMT-2e" d="M 463 866 
L 1350 866 
L 1169 0 
L 281 0 
L 463 866 
z
" transform="scale(0.015625)"/>
      <path id="Arial-BoldItalicMT-34" d="M 1978 934 
L 175 934 
L 331 1684 
L 2809 4581 
L 3584 4581 
L 2981 1697 
L 3538 1697 
L 3378 934 
L 2822 934 
L 2625 0 
L 1781 0 
L 1978 934 
z
M 2138 1697 
L 2434 3125 
L 1225 1697 
L 2138 1697 
z
" transform="scale(0.015625)"/>
      <path id="Arial-BoldItalicMT-30" d="M 413 1491 
Q 413 2181 647 2891 
Q 934 3756 1384 4178 
Q 1834 4600 2384 4600 
Q 2941 4600 3298 4197 
Q 3656 3794 3656 3025 
Q 3656 2322 3395 1539 
Q 3134 756 2690 339 
Q 2247 -78 1691 -78 
Q 1134 -78 773 325 
Q 413 728 413 1491 
z
M 1294 1309 
Q 1294 941 1412 791 
Q 1531 641 1719 641 
Q 1969 641 2163 872 
Q 2422 1181 2622 2091 
Q 2781 2813 2781 3234 
Q 2781 3578 2661 3729 
Q 2541 3881 2353 3881 
Q 2116 3881 1931 3653 
Q 1659 3322 1463 2488 
Q 1294 1766 1294 1309 
z
" transform="scale(0.015625)"/>
      <path id="Arial-BoldItalicMT-25" d="M 581 3159 
Q 581 3756 903 4207 
Q 1225 4659 1803 4659 
Q 2197 4659 2433 4409 
Q 2669 4159 2669 3713 
Q 2669 3344 2508 2972 
Q 2347 2600 2069 2426 
Q 1791 2253 1447 2253 
Q 1059 2253 820 2497 
Q 581 2741 581 3159 
z
M 1241 3088 
Q 1241 2928 1309 2854 
Q 1378 2781 1497 2781 
Q 1722 2781 1873 3120 
Q 2025 3459 2025 3838 
Q 2025 3975 1953 4051 
Q 1881 4128 1766 4128 
Q 1634 4128 1529 4020 
Q 1425 3913 1333 3598 
Q 1241 3284 1241 3088 
z
M 1516 -197 
L 794 -197 
L 4613 4659 
L 5331 4659 
L 1516 -197 
z
M 3444 716 
Q 3444 1313 3766 1766 
Q 4088 2219 4666 2219 
Q 5059 2219 5295 1969 
Q 5531 1719 5531 1272 
Q 5531 903 5370 529 
Q 5209 156 4931 -16 
Q 4653 -188 4309 -188 
Q 3922 -188 3683 56 
Q 3444 300 3444 716 
z
M 4100 647 
Q 4100 488 4169 414 
Q 4238 341 4359 341 
Q 4584 341 4736 678 
Q 4888 1016 4888 1394 
Q 4888 1534 4816 1611 
Q 4744 1688 4628 1688 
Q 4497 1688 4392 1580 
Q 4288 1472 4194 1158 
Q 4100 844 4100 647 
z
" transform="scale(0.015625)"/>
     </defs>
     <use xlink:href="#Arial-BoldItalicMT-33"/>
     <use xlink:href="#Arial-BoldItalicMT-38" x="55.615234"/>
     <use xlink:href="#Arial-BoldItalicMT-2e" x="111.230469"/>
     <use xlink:href="#Arial-BoldItalicMT-34" x="139.013672"/>
     <use xlink:href="#Arial-BoldItalicMT-30" x="194.628906"/>
     <use xlink:href="#Arial-BoldItalicMT-25" x="250.244141"/>
    </g>
   </g>
   <g id="text_3">
    <!-- Positive -->
    <g style="fill: #808080" transform="translate(7.2 183.528882)scale(0.14 -0.14)">
     <defs>
      <path id="Arial-BoldItalicMT-50" d="M 1203 0 
L 259 0 
L 1219 4581 
L 3081 4581 
Q 3578 4581 3867 4464 
Q 4156 4347 4325 4076 
Q 4494 3806 4494 3431 
Q 4494 3084 4359 2756 
Q 4225 2428 4029 2231 
Q 3834 2034 3609 1932 
Q 3384 1831 3003 1778 
Q 2781 1747 2172 1747 
L 1569 1747 
L 1203 0 
z
M 1725 2506 
L 2016 2506 
Q 2763 2506 3013 2600 
Q 3263 2694 3406 2900 
Q 3550 3106 3550 3353 
Q 3550 3519 3476 3625 
Q 3403 3731 3270 3779 
Q 3138 3828 2678 3828 
L 2003 3828 
L 1725 2506 
z
" transform="scale(0.015625)"/>
      <path id="Arial-BoldItalicMT-6f" d="M 388 1378 
Q 388 2300 908 2848 
Q 1428 3397 2275 3397 
Q 3009 3397 3421 2992 
Q 3834 2588 3834 1903 
Q 3834 1097 3318 509 
Q 2803 -78 1938 -78 
Q 1469 -78 1106 109 
Q 744 297 566 640 
Q 388 984 388 1378 
z
M 2944 2019 
Q 2944 2338 2758 2530 
Q 2572 2722 2278 2722 
Q 1988 2722 1763 2542 
Q 1538 2363 1413 2020 
Q 1288 1678 1288 1391 
Q 1288 1034 1481 825 
Q 1675 616 1969 616 
Q 2338 616 2588 931 
Q 2944 1378 2944 2019 
z
" transform="scale(0.015625)"/>
      <path id="Arial-BoldItalicMT-73" d="M 141 928 
L 1009 1066 
Q 1125 791 1297 677 
Q 1469 563 1766 563 
Q 2072 563 2256 700 
Q 2384 794 2384 928 
Q 2384 1019 2319 1091 
Q 2250 1159 1947 1259 
Q 1134 1528 941 1684 
Q 638 1928 638 2322 
Q 638 2716 931 3000 
Q 1341 3397 2147 3397 
Q 2788 3397 3116 3162 
Q 3444 2928 3531 2528 
L 2703 2384 
Q 2638 2566 2491 2656 
Q 2291 2778 2009 2778 
Q 1728 2778 1604 2684 
Q 1481 2591 1481 2469 
Q 1481 2344 1606 2263 
Q 1684 2213 2109 2088 
Q 2766 1897 2988 1713 
Q 3300 1453 3300 1088 
Q 3300 616 2903 269 
Q 2506 -78 1784 -78 
Q 1066 -78 673 186 
Q 281 450 141 928 
z
" transform="scale(0.015625)"/>
     </defs>
     <use xlink:href="#Arial-BoldItalicMT-50"/>
     <use xlink:href="#Arial-BoldItalicMT-6f" x="66.699219"/>
     <use xlink:href="#Arial-BoldItalicMT-73" x="127.783203"/>
     <use xlink:href="#Arial-BoldItalicMT-69" x="183.398438"/>
     <use xlink:href="#Arial-BoldItalicMT-74" x="211.181641"/>
     <use xlink:href="#Arial-BoldItalicMT-69" x="244.482422"/>
     <use xlink:href="#Arial-BoldItalicMT-76" x="272.265625"/>
     <use xlink:href="#Arial-BoldItalicMT-65" x="327.880859"/>
    </g>
   </g>
   <g id="text_4">
    <!-- 31.40% -->
    <g style="fill: #808080" transform="translate(86.199129 170.605055)scale(0.14 -0.14)">
     <defs>
      <path id="Arial-BoldItalicMT-31" d="M 759 2631 
L 928 3431 
Q 2088 3938 2722 4609 
L 3269 4609 
L 2303 0 
L 1400 0 
L 2066 3175 
Q 1784 2994 1417 2844 
Q 1050 2694 759 2631 
z
" transform="scale(0.015625)"/>
     </defs>
     <use xlink:href="#Arial-BoldItalicMT-33"/>
     <use xlink:href="#Arial-BoldItalicMT-31" x="55.615234"/>
     <use xlink:href="#Arial-BoldItalicMT-2e" x="111.230469"/>
     <use xlink:href="#Arial-BoldItalicMT-34" x="139.013672"/>
     <use xlink:href="#Arial-BoldItalicMT-30" x="194.628906"/>
     <use xlink:href="#Arial-BoldItalicMT-25" x="250.244141"/>
    </g>
   </g>
   <g id="text_5">
    <!-- Neutral -->
    <g style="fill: #808080" transform="translate(233.831251 245.793129)scale(0.14 -0.14)">
     <defs>
      <path id="Arial-BoldItalicMT-75" d="M 944 3319 
L 1841 3319 
L 1431 1353 
Q 1356 1000 1356 913 
Q 1356 769 1462 666 
Q 1569 563 1734 563 
Q 1853 563 1968 608 
Q 2084 653 2206 745 
Q 2328 838 2425 956 
Q 2522 1075 2606 1269 
Q 2666 1413 2734 1738 
L 3066 3319 
L 3963 3319 
L 3269 0 
L 2431 0 
L 2525 450 
Q 1975 -78 1328 -78 
Q 919 -78 684 156 
Q 450 391 450 784 
Q 450 956 556 1469 
L 944 3319 
z
" transform="scale(0.015625)"/>
      <path id="Arial-BoldItalicMT-72" d="M 900 3319 
L 1738 3319 
L 1603 2675 
Q 2072 3397 2619 3397 
Q 2813 3397 3034 3300 
L 2691 2566 
Q 2569 2609 2431 2609 
Q 2200 2609 1961 2434 
Q 1722 2259 1587 1967 
Q 1453 1675 1322 1041 
L 1103 0 
L 206 0 
L 900 3319 
z
" transform="scale(0.015625)"/>
      <path id="Arial-BoldItalicMT-6c" d="M 250 0 
L 1209 4581 
L 2103 4581 
L 1147 0 
L 250 0 
z
" transform="scale(0.015625)"/>
     </defs>
     <use xlink:href="#Arial-BoldItalicMT-4e"/>
     <use xlink:href="#Arial-BoldItalicMT-65" x="72.216797"/>
     <use xlink:href="#Arial-BoldItalicMT-75" x="127.832031"/>
     <use xlink:href="#Arial-BoldItalicMT-74" x="188.916016"/>
     <use xlink:href="#Arial-BoldItalicMT-72" x="222.216797"/>
     <use xlink:href="#Arial-BoldItalicMT-61" x="261.132812"/>
     <use xlink:href="#Arial-BoldItalicMT-6c" x="316.748047"/>
    </g>
   </g>
   <g id="text_6">
    <!-- 30.20% -->
    <g style="fill: #808080" transform="translate(180.533107 204.567372)scale(0.14 -0.14)">
     <defs>
      <path id="Arial-BoldItalicMT-32" d="M 1691 3153 
L 813 3284 
Q 919 3922 1308 4261 
Q 1697 4600 2281 4600 
Q 2922 4600 3287 4253 
Q 3653 3906 3653 3372 
Q 3653 3100 3540 2826 
Q 3428 2553 3172 2253 
Q 2988 2041 2569 1652 
Q 2150 1263 2014 1120 
Q 1878 978 1753 819 
L 3341 819 
L 3172 0 
L 388 0 
Q 431 338 586 642 
Q 741 947 972 1209 
Q 1203 1472 1819 2056 
Q 2281 2500 2403 2634 
Q 2622 2878 2703 3056 
Q 2784 3234 2784 3378 
Q 2784 3609 2648 3753 
Q 2513 3897 2303 3897 
Q 2091 3897 1931 3736 
Q 1772 3575 1691 3153 
z
" transform="scale(0.015625)"/>
     </defs>
     <use xlink:href="#Arial-BoldItalicMT-33"/>
     <use xlink:href="#Arial-BoldItalicMT-30" x="55.615234"/>
     <use xlink:href="#Arial-BoldItalicMT-2e" x="111.230469"/>
     <use xlink:href="#Arial-BoldItalicMT-32" x="139.013672"/>
     <use xlink:href="#Arial-BoldItalicMT-30" x="194.628906"/>
     <use xlink:href="#Arial-BoldItalicMT-25" x="250.244141"/>
    </g>
   </g>
   <g id="text_7">
    <!-- VADER labels -->
    <g style="fill: #0000ff" transform="translate(118.70549 18.6525)scale(0.16 -0.16)">
     <defs>
      <path id="ArialMT-56" d="M 1803 0 
L 28 4581 
L 684 4581 
L 1875 1253 
Q 2019 853 2116 503 
Q 2222 878 2363 1253 
L 3600 4581 
L 4219 4581 
L 2425 0 
L 1803 0 
z
" transform="scale(0.015625)"/>
      <path id="ArialMT-41" d="M -9 0 
L 1750 4581 
L 2403 4581 
L 4278 0 
L 3588 0 
L 3053 1388 
L 1138 1388 
L 634 0 
L -9 0 
z
M 1313 1881 
L 2866 1881 
L 2388 3150 
Q 2169 3728 2063 4100 
Q 1975 3659 1816 3225 
L 1313 1881 
z
" transform="scale(0.015625)"/>
      <path id="ArialMT-44" d="M 494 0 
L 494 4581 
L 2072 4581 
Q 2606 4581 2888 4516 
Q 3281 4425 3559 4188 
Q 3922 3881 4101 3404 
Q 4281 2928 4281 2316 
Q 4281 1794 4159 1391 
Q 4038 988 3847 723 
Q 3656 459 3429 307 
Q 3203 156 2883 78 
Q 2563 0 2147 0 
L 494 0 
z
M 1100 541 
L 2078 541 
Q 2531 541 2789 625 
Q 3047 709 3200 863 
Q 3416 1078 3536 1442 
Q 3656 1806 3656 2325 
Q 3656 3044 3420 3430 
Q 3184 3816 2847 3947 
Q 2603 4041 2063 4041 
L 1100 4041 
L 1100 541 
z
" transform="scale(0.015625)"/>
      <path id="ArialMT-45" d="M 506 0 
L 506 4581 
L 3819 4581 
L 3819 4041 
L 1113 4041 
L 1113 2638 
L 3647 2638 
L 3647 2100 
L 1113 2100 
L 1113 541 
L 3925 541 
L 3925 0 
L 506 0 
z
" transform="scale(0.015625)"/>
      <path id="ArialMT-52" d="M 503 0 
L 503 4581 
L 2534 4581 
Q 3147 4581 3465 4457 
Q 3784 4334 3975 4021 
Q 4166 3709 4166 3331 
Q 4166 2844 3850 2509 
Q 3534 2175 2875 2084 
Q 3116 1969 3241 1856 
Q 3506 1613 3744 1247 
L 4541 0 
L 3778 0 
L 3172 953 
Q 2906 1366 2734 1584 
Q 2563 1803 2427 1890 
Q 2291 1978 2150 2013 
Q 2047 2034 1813 2034 
L 1109 2034 
L 1109 0 
L 503 0 
z
M 1109 2559 
L 2413 2559 
Q 2828 2559 3062 2645 
Q 3297 2731 3419 2920 
Q 3541 3109 3541 3331 
Q 3541 3656 3305 3865 
Q 3069 4075 2559 4075 
L 1109 4075 
L 1109 2559 
z
" transform="scale(0.015625)"/>
      <path id="ArialMT-20" transform="scale(0.015625)"/>
      <path id="ArialMT-6c" d="M 409 0 
L 409 4581 
L 972 4581 
L 972 0 
L 409 0 
z
" transform="scale(0.015625)"/>
      <path id="ArialMT-61" d="M 2588 409 
Q 2275 144 1986 34 
Q 1697 -75 1366 -75 
Q 819 -75 525 192 
Q 231 459 231 875 
Q 231 1119 342 1320 
Q 453 1522 633 1644 
Q 813 1766 1038 1828 
Q 1203 1872 1538 1913 
Q 2219 1994 2541 2106 
Q 2544 2222 2544 2253 
Q 2544 2597 2384 2738 
Q 2169 2928 1744 2928 
Q 1347 2928 1158 2789 
Q 969 2650 878 2297 
L 328 2372 
Q 403 2725 575 2942 
Q 747 3159 1072 3276 
Q 1397 3394 1825 3394 
Q 2250 3394 2515 3294 
Q 2781 3194 2906 3042 
Q 3031 2891 3081 2659 
Q 3109 2516 3109 2141 
L 3109 1391 
Q 3109 606 3145 398 
Q 3181 191 3288 0 
L 2700 0 
Q 2613 175 2588 409 
z
M 2541 1666 
Q 2234 1541 1622 1453 
Q 1275 1403 1131 1340 
Q 988 1278 909 1158 
Q 831 1038 831 891 
Q 831 666 1001 516 
Q 1172 366 1500 366 
Q 1825 366 2078 508 
Q 2331 650 2450 897 
Q 2541 1088 2541 1459 
L 2541 1666 
z
" transform="scale(0.015625)"/>
      <path id="ArialMT-62" d="M 941 0 
L 419 0 
L 419 4581 
L 981 4581 
L 981 2947 
Q 1338 3394 1891 3394 
Q 2197 3394 2470 3270 
Q 2744 3147 2920 2923 
Q 3097 2700 3197 2384 
Q 3297 2069 3297 1709 
Q 3297 856 2875 390 
Q 2453 -75 1863 -75 
Q 1275 -75 941 416 
L 941 0 
z
M 934 1684 
Q 934 1088 1097 822 
Q 1363 388 1816 388 
Q 2184 388 2453 708 
Q 2722 1028 2722 1663 
Q 2722 2313 2464 2622 
Q 2206 2931 1841 2931 
Q 1472 2931 1203 2611 
Q 934 2291 934 1684 
z
" transform="scale(0.015625)"/>
      <path id="ArialMT-65" d="M 2694 1069 
L 3275 997 
Q 3138 488 2766 206 
Q 2394 -75 1816 -75 
Q 1088 -75 661 373 
Q 234 822 234 1631 
Q 234 2469 665 2931 
Q 1097 3394 1784 3394 
Q 2450 3394 2872 2941 
Q 3294 2488 3294 1666 
Q 3294 1616 3291 1516 
L 816 1516 
Q 847 969 1125 678 
Q 1403 388 1819 388 
Q 2128 388 2347 550 
Q 2566 713 2694 1069 
z
M 847 1978 
L 2700 1978 
Q 2663 2397 2488 2606 
Q 2219 2931 1791 2931 
Q 1403 2931 1139 2672 
Q 875 2413 847 1978 
z
" transform="scale(0.015625)"/>
      <path id="ArialMT-73" d="M 197 991 
L 753 1078 
Q 800 744 1014 566 
Q 1228 388 1613 388 
Q 2000 388 2187 545 
Q 2375 703 2375 916 
Q 2375 1106 2209 1216 
Q 2094 1291 1634 1406 
Q 1016 1563 777 1677 
Q 538 1791 414 1992 
Q 291 2194 291 2438 
Q 291 2659 392 2848 
Q 494 3038 669 3163 
Q 800 3259 1026 3326 
Q 1253 3394 1513 3394 
Q 1903 3394 2198 3281 
Q 2494 3169 2634 2976 
Q 2775 2784 2828 2463 
L 2278 2388 
Q 2241 2644 2061 2787 
Q 1881 2931 1553 2931 
Q 1166 2931 1000 2803 
Q 834 2675 834 2503 
Q 834 2394 903 2306 
Q 972 2216 1119 2156 
Q 1203 2125 1616 2013 
Q 2213 1853 2448 1751 
Q 2684 1650 2818 1456 
Q 2953 1263 2953 975 
Q 2953 694 2789 445 
Q 2625 197 2315 61 
Q 2006 -75 1616 -75 
Q 969 -75 630 194 
Q 291 463 197 991 
z
" transform="scale(0.015625)"/>
     </defs>
     <use xlink:href="#ArialMT-56"/>
     <use xlink:href="#ArialMT-41" x="59.324219"/>
     <use xlink:href="#ArialMT-44" x="126.023438"/>
     <use xlink:href="#ArialMT-45" x="198.240234"/>
     <use xlink:href="#ArialMT-52" x="264.939453"/>
     <use xlink:href="#ArialMT-20" x="337.15625"/>
     <use xlink:href="#ArialMT-6c" x="364.939453"/>
     <use xlink:href="#ArialMT-61" x="387.15625"/>
     <use xlink:href="#ArialMT-62" x="442.771484"/>
     <use xlink:href="#ArialMT-65" x="498.386719"/>
     <use xlink:href="#ArialMT-6c" x="554.001953"/>
     <use xlink:href="#ArialMT-73" x="576.21875"/>
    </g>
   </g>
  </g>
  <g id="axes_2">
   <g id="matplotlib.axis_3"/>
   <g id="matplotlib.axis_4"/>
   <g id="patch_5">
    <path d="M 574.621171 151.470682 
C 574.621171 134.895159 570.559037 118.569452 562.791353 103.92667 
C 555.023669 89.283888 543.784574 76.765407 530.060663 67.470126 
C 516.336752 58.174846 500.541702 52.382953 484.062039 50.602873 
C 467.582376 48.822794 450.914844 51.108184 435.522557 57.258427 
C 420.130271 63.408671 406.477197 73.238381 395.761835 85.884684 
C 385.046472 98.530987 377.591812 113.612687 374.052242 129.805878 
C 370.512672 145.999068 370.994885 162.815641 375.45655 178.779397 
C 379.918216 194.743153 388.224847 209.372901 399.647268 221.384406 
L 473.166626 151.470682 
L 574.621171 151.470682 
z
" style="fill: #ff7a6c; stroke: #ffffff; stroke-width: 0.8; stroke-linejoin: miter"/>
   </g>
   <g id="patch_6">
    <path d="M 399.647268 221.384406 
C 415.536198 238.092769 436.655943 248.895639 459.502928 252.000917 
C 482.349913 255.106195 505.586819 250.332117 525.358852 238.47066 
L 473.166626 151.470682 
L 399.647268 221.384406 
z
" style="fill: #f7e967; stroke: #ffffff; stroke-width: 0.8; stroke-linejoin: miter"/>
   </g>
   <g id="patch_7">
    <path d="M 525.358852 238.47066 
C 540.382398 229.457873 552.818324 216.705404 561.450722 201.460112 
C 570.083121 186.214819 574.621171 168.990306 574.621171 151.470682 
L 473.166626 151.470682 
L 525.358852 238.47066 
z
" style="fill: #a9cf54; stroke: #ffffff; stroke-width: 0.8; stroke-linejoin: miter"/>
   </g>
   <g id="text_8">
    <!-- Negative -->
    <g style="fill: #808080" transform="translate(373.4044 51.374389)scale(0.14 -0.14)">
     <use xlink:href="#Arial-BoldItalicMT-4e"/>
     <use xlink:href="#Arial-BoldItalicMT-65" x="72.216797"/>
     <use xlink:href="#Arial-BoldItalicMT-67" x="127.832031"/>
     <use xlink:href="#Arial-BoldItalicMT-61" x="188.916016"/>
     <use xlink:href="#Arial-BoldItalicMT-74" x="244.53125"/>
     <use xlink:href="#Arial-BoldItalicMT-69" x="277.832031"/>
     <use xlink:href="#Arial-BoldItalicMT-76" x="305.615234"/>
     <use xlink:href="#Arial-BoldItalicMT-65" x="361.230469"/>
    </g>
   </g>
   <g id="text_9">
    <!-- 62.10% -->
    <g style="fill: #808080" transform="translate(426.840341 98.56911)scale(0.14 -0.14)">
     <defs>
      <path id="Arial-BoldItalicMT-36" d="M 3684 3463 
L 2844 3394 
Q 2819 3666 2714 3775 
Q 2609 3884 2431 3884 
Q 2203 3884 2025 3703 
Q 1772 3444 1619 2866 
Q 1909 3056 2234 3056 
Q 2766 3056 3109 2693 
Q 3453 2331 3453 1706 
Q 3453 1209 3212 767 
Q 2972 325 2612 122 
Q 2253 -81 1853 -81 
Q 1469 -81 1161 111 
Q 853 303 686 672 
Q 519 1041 519 1659 
Q 519 2888 1062 3744 
Q 1606 4600 2497 4600 
Q 3009 4600 3312 4319 
Q 3616 4038 3684 3463 
z
M 1381 1347 
Q 1381 984 1525 812 
Q 1669 641 1881 641 
Q 2144 641 2331 884 
Q 2584 1213 2584 1766 
Q 2584 2122 2443 2292 
Q 2303 2463 2100 2463 
Q 1928 2463 1753 2333 
Q 1578 2203 1479 1920 
Q 1381 1638 1381 1347 
z
" transform="scale(0.015625)"/>
     </defs>
     <use xlink:href="#Arial-BoldItalicMT-36"/>
     <use xlink:href="#Arial-BoldItalicMT-32" x="55.615234"/>
     <use xlink:href="#Arial-BoldItalicMT-2e" x="111.230469"/>
     <use xlink:href="#Arial-BoldItalicMT-31" x="139.013672"/>
     <use xlink:href="#Arial-BoldItalicMT-30" x="194.628906"/>
     <use xlink:href="#Arial-BoldItalicMT-25" x="250.244141"/>
    </g>
   </g>
   <g id="text_10">
    <!-- Neutral -->
    <g style="fill: #808080" transform="translate(409.90437 265.679722)scale(0.14 -0.14)">
     <use xlink:href="#Arial-BoldItalicMT-4e"/>
     <use xlink:href="#Arial-BoldItalicMT-65" x="72.216797"/>
     <use xlink:href="#Arial-BoldItalicMT-75" x="127.832031"/>
     <use xlink:href="#Arial-BoldItalicMT-74" x="188.916016"/>
     <use xlink:href="#Arial-BoldItalicMT-72" x="222.216797"/>
     <use xlink:href="#Arial-BoldItalicMT-61" x="261.132812"/>
     <use xlink:href="#Arial-BoldItalicMT-6c" x="316.748047"/>
    </g>
   </g>
   <g id="text_11">
    <!-- 21.50% -->
    <g style="fill: #808080" transform="translate(441.228563 215.414604)scale(0.14 -0.14)">
     <defs>
      <path id="Arial-BoldItalicMT-35" d="M 406 1313 
L 1278 1391 
Q 1275 1328 1275 1297 
Q 1275 978 1417 818 
Q 1559 659 1788 659 
Q 2106 659 2367 964 
Q 2628 1269 2628 1806 
Q 2628 2125 2481 2287 
Q 2334 2450 2091 2450 
Q 1916 2450 1752 2369 
Q 1588 2288 1434 2122 
L 697 2178 
L 1394 4519 
L 3697 4519 
L 3528 3700 
L 2006 3700 
L 1797 2994 
Q 1928 3053 2059 3083 
Q 2191 3113 2319 3113 
Q 2844 3113 3181 2759 
Q 3519 2406 3519 1813 
Q 3519 1338 3283 877 
Q 3047 416 2628 169 
Q 2209 -78 1750 -78 
Q 1166 -78 789 300 
Q 413 678 406 1313 
z
" transform="scale(0.015625)"/>
     </defs>
     <use xlink:href="#Arial-BoldItalicMT-32"/>
     <use xlink:href="#Arial-BoldItalicMT-31" x="55.615234"/>
     <use xlink:href="#Arial-BoldItalicMT-2e" x="111.230469"/>
     <use xlink:href="#Arial-BoldItalicMT-35" x="139.013672"/>
     <use xlink:href="#Arial-BoldItalicMT-30" x="194.628906"/>
     <use xlink:href="#Arial-BoldItalicMT-25" x="250.244141"/>
    </g>
   </g>
   <g id="text_12">
    <!-- Positive -->
    <g style="fill: #808080" transform="translate(570.279132 210.084836)scale(0.14 -0.14)">
     <use xlink:href="#Arial-BoldItalicMT-50"/>
     <use xlink:href="#Arial-BoldItalicMT-6f" x="66.699219"/>
     <use xlink:href="#Arial-BoldItalicMT-73" x="127.783203"/>
     <use xlink:href="#Arial-BoldItalicMT-69" x="183.398438"/>
     <use xlink:href="#Arial-BoldItalicMT-74" x="211.181641"/>
     <use xlink:href="#Arial-BoldItalicMT-69" x="244.482422"/>
     <use xlink:href="#Arial-BoldItalicMT-76" x="272.265625"/>
     <use xlink:href="#Arial-BoldItalicMT-65" x="327.880859"/>
    </g>
   </g>
   <g id="text_13">
    <!-- 16.40% -->
    <g style="fill: #808080" transform="translate(502.39724 185.090121)scale(0.14 -0.14)">
     <use xlink:href="#Arial-BoldItalicMT-31"/>
     <use xlink:href="#Arial-BoldItalicMT-36" x="55.615234"/>
     <use xlink:href="#Arial-BoldItalicMT-2e" x="111.230469"/>
     <use xlink:href="#Arial-BoldItalicMT-34" x="139.013672"/>
     <use xlink:href="#Arial-BoldItalicMT-30" x="194.628906"/>
     <use xlink:href="#Arial-BoldItalicMT-25" x="250.244141"/>
    </g>
   </g>
   <g id="text_14">
    <!-- roBERTa labels -->
    <g style="fill: #0000ff" transform="translate(418.175376 18.6525)scale(0.16 -0.16)">
     <defs>
      <path id="ArialMT-72" d="M 416 0 
L 416 3319 
L 922 3319 
L 922 2816 
Q 1116 3169 1280 3281 
Q 1444 3394 1641 3394 
Q 1925 3394 2219 3213 
L 2025 2691 
Q 1819 2813 1613 2813 
Q 1428 2813 1281 2702 
Q 1134 2591 1072 2394 
Q 978 2094 978 1738 
L 978 0 
L 416 0 
z
" transform="scale(0.015625)"/>
      <path id="ArialMT-6f" d="M 213 1659 
Q 213 2581 725 3025 
Q 1153 3394 1769 3394 
Q 2453 3394 2887 2945 
Q 3322 2497 3322 1706 
Q 3322 1066 3130 698 
Q 2938 331 2570 128 
Q 2203 -75 1769 -75 
Q 1072 -75 642 372 
Q 213 819 213 1659 
z
M 791 1659 
Q 791 1022 1069 705 
Q 1347 388 1769 388 
Q 2188 388 2466 706 
Q 2744 1025 2744 1678 
Q 2744 2294 2464 2611 
Q 2184 2928 1769 2928 
Q 1347 2928 1069 2612 
Q 791 2297 791 1659 
z
" transform="scale(0.015625)"/>
      <path id="ArialMT-42" d="M 469 0 
L 469 4581 
L 2188 4581 
Q 2713 4581 3030 4442 
Q 3347 4303 3526 4014 
Q 3706 3725 3706 3409 
Q 3706 3116 3547 2856 
Q 3388 2597 3066 2438 
Q 3481 2316 3704 2022 
Q 3928 1728 3928 1328 
Q 3928 1006 3792 729 
Q 3656 453 3456 303 
Q 3256 153 2954 76 
Q 2653 0 2216 0 
L 469 0 
z
M 1075 2656 
L 2066 2656 
Q 2469 2656 2644 2709 
Q 2875 2778 2992 2937 
Q 3109 3097 3109 3338 
Q 3109 3566 3000 3739 
Q 2891 3913 2687 3977 
Q 2484 4041 1991 4041 
L 1075 4041 
L 1075 2656 
z
M 1075 541 
L 2216 541 
Q 2509 541 2628 563 
Q 2838 600 2978 687 
Q 3119 775 3209 942 
Q 3300 1109 3300 1328 
Q 3300 1584 3169 1773 
Q 3038 1963 2805 2039 
Q 2572 2116 2134 2116 
L 1075 2116 
L 1075 541 
z
" transform="scale(0.015625)"/>
      <path id="ArialMT-54" d="M 1659 0 
L 1659 4041 
L 150 4041 
L 150 4581 
L 3781 4581 
L 3781 4041 
L 2266 4041 
L 2266 0 
L 1659 0 
z
" transform="scale(0.015625)"/>
     </defs>
     <use xlink:href="#ArialMT-72"/>
     <use xlink:href="#ArialMT-6f" x="33.300781"/>
     <use xlink:href="#ArialMT-42" x="88.916016"/>
     <use xlink:href="#ArialMT-45" x="155.615234"/>
     <use xlink:href="#ArialMT-52" x="222.314453"/>
     <use xlink:href="#ArialMT-54" x="292.78125"/>
     <use xlink:href="#ArialMT-61" x="342.740234"/>
     <use xlink:href="#ArialMT-20" x="398.355469"/>
     <use xlink:href="#ArialMT-6c" x="426.138672"/>
     <use xlink:href="#ArialMT-61" x="448.355469"/>
     <use xlink:href="#ArialMT-62" x="503.970703"/>
     <use xlink:href="#ArialMT-65" x="559.585938"/>
     <use xlink:href="#ArialMT-6c" x="615.201172"/>
     <use xlink:href="#ArialMT-73" x="637.417969"/>
    </g>
   </g>
  </g>
 </g>
</svg>
