<?xml version="1.0" encoding="utf-8" standalone="no"?>
<!DOCTYPE svg PUBLIC "-//W3C//DTD SVG 1.1//EN"
  "http://www.w3.org/Graphics/SVG/1.1/DTD/svg11.dtd">
<svg xmlns:xlink="http://www.w3.org/1999/xlink" width="625.343373pt" height="422.001562pt" viewBox="0 0 625.343373 422.001562" xmlns="http://www.w3.org/2000/svg" version="1.1">
 <metadata>
  <rdf:RDF xmlns:dc="http://purl.org/dc/elements/1.1/" xmlns:cc="http://creativecommons.org/ns#" xmlns:rdf="http://www.w3.org/1999/02/22-rdf-syntax-ns#">
   <cc:Work>
    <dc:type rdf:resource="http://purl.org/dc/dcmitype/StillImage"/>
    <dc:date>2022-10-11T22:22:52.498706</dc:date>
    <dc:format>image/svg+xml</dc:format>
    <dc:creator>
     <cc:Agent>
      <dc:title>Matplotlib v3.5.1, https://matplotlib.org/</dc:title>
     </cc:Agent>
    </dc:creator>
   </cc:Work>
  </rdf:RDF>
 </metadata>
 <defs>
  <style type="text/css">*{stroke-linejoin: round; stroke-linecap: butt}</style>
 </defs>
 <g id="figure_1">
  <g id="patch_1">
   <path d="M 0 422.001562 
L 625.343373 422.001562 
L 625.343373 0 
L 0 0 
z
" style="fill: #ffffff"/>
  </g>
  <g id="axes_1">
   <g id="patch_2">
    <path d="M 51.9275 376.56 
L 609.9275 376.56 
L 609.9275 50.4 
L 51.9275 50.4 
z
" style="fill: #ffffff"/>
   </g>
   <g id="matplotlib.axis_1">
    <g id="xtick_1">
     <g id="line2d_1">
      <path d="M 54.180604 376.56 
L 54.180604 50.4 
" clip-path="url(#p586830bad4)" style="fill: none; stroke-dasharray: 2.96,1.28; stroke-dashoffset: 0; stroke: #cccccc; stroke-opacity: 0.2; stroke-width: 0.8"/>
     </g>
     <g id="line2d_2">
      <defs>
       <path id="mfe81583132" d="M 0 0 
L 0 4.8 
" style="stroke: #808080"/>
      </defs>
      <g>
       <use xlink:href="#mfe81583132" x="54.180604" y="376.56" style="fill: #808080; stroke: #808080"/>
      </g>
     </g>
     <g id="text_1">
      <!-- −1.5 -->
      <g style="fill: #808080" transform="translate(40.362166 394.880937)scale(0.14 -0.14)">
       <defs>
        <path id="Arial-ItalicMT-2212" d="M 3600 1997 
L 575 1997 
L 575 2522 
L 3600 2522 
L 3600 1997 
z
" transform="scale(0.015625)"/>
        <path id="Arial-ItalicMT-31" d="M 1541 0 
L 2266 3459 
Q 1797 3091 947 2869 
L 1053 3381 
Q 1475 3550 1886 3822 
Q 2297 4094 2503 4297 
Q 2628 4422 2741 4600 
L 3069 4600 
L 2109 0 
L 1541 0 
z
" transform="scale(0.015625)"/>
        <path id="Arial-ItalicMT-2e" d="M 369 0 
L 503 641 
L 1144 641 
L 1006 0 
L 369 0 
z
" transform="scale(0.015625)"/>
        <path id="Arial-ItalicMT-35" d="M 447 1309 
L 1022 1366 
Q 1016 1244 1016 1219 
Q 1016 1013 1120 803 
Q 1225 594 1404 483 
Q 1584 372 1784 372 
Q 2047 372 2319 553 
Q 2591 734 2759 1081 
Q 2928 1428 2928 1769 
Q 2928 2153 2701 2384 
Q 2475 2616 2106 2616 
Q 1859 2616 1639 2497 
Q 1419 2378 1228 2141 
L 734 2175 
L 1425 4519 
L 3663 4519 
L 3553 4000 
L 1813 4000 
L 1469 2834 
Q 1663 2975 1867 3045 
Q 2072 3116 2288 3116 
Q 2813 3116 3150 2769 
Q 3488 2422 3488 1819 
Q 3488 1291 3256 845 
Q 3025 400 2620 161 
Q 2216 -78 1747 -78 
Q 1353 -78 1050 100 
Q 747 278 595 590 
Q 444 903 444 1216 
Q 444 1247 447 1309 
z
" transform="scale(0.015625)"/>
       </defs>
       <use xlink:href="#Arial-ItalicMT-2212"/>
       <use xlink:href="#Arial-ItalicMT-31" x="58.398438"/>
       <use xlink:href="#Arial-ItalicMT-2e" x="114.013672"/>
       <use xlink:href="#Arial-ItalicMT-35" x="141.796875"/>
      </g>
     </g>
    </g>
    <g id="xtick_2">
     <g id="line2d_3">
      <path d="M 146.552732 376.56 
L 146.552732 50.4 
" clip-path="url(#p586830bad4)" style="fill: none; stroke-dasharray: 2.96,1.28; stroke-dashoffset: 0; stroke: #cccccc; stroke-opacity: 0.2; stroke-width: 0.8"/>
     </g>
     <g id="line2d_4">
      <g>
       <use xlink:href="#mfe81583132" x="146.552732" y="376.56" style="fill: #808080; stroke: #808080"/>
      </g>
     </g>
     <g id="text_2">
      <!-- −1.0 -->
      <g style="fill: #808080" transform="translate(132.734294 394.880937)scale(0.14 -0.14)">
       <defs>
        <path id="Arial-ItalicMT-30" d="M 453 1503 
Q 453 2084 626 2684 
Q 800 3284 1012 3643 
Q 1225 4003 1453 4206 
Q 1681 4409 1901 4504 
Q 2122 4600 2391 4600 
Q 2916 4600 3267 4209 
Q 3619 3819 3619 3081 
Q 3619 2322 3375 1578 
Q 3088 697 2575 256 
Q 2181 -78 1678 -78 
Q 1163 -78 808 326 
Q 453 731 453 1503 
z
M 1000 1359 
Q 1000 938 1141 700 
Q 1331 372 1706 372 
Q 2034 372 2303 669 
Q 2691 1088 2886 1895 
Q 3081 2703 3081 3216 
Q 3081 3709 2892 3928 
Q 2703 4147 2394 4147 
Q 2169 4147 1973 4031 
Q 1778 3916 1600 3634 
Q 1347 3238 1159 2447 
Q 1000 1772 1000 1359 
z
" transform="scale(0.015625)"/>
       </defs>
       <use xlink:href="#Arial-ItalicMT-2212"/>
       <use xlink:href="#Arial-ItalicMT-31" x="58.398438"/>
       <use xlink:href="#Arial-ItalicMT-2e" x="114.013672"/>
       <use xlink:href="#Arial-ItalicMT-30" x="141.796875"/>
      </g>
     </g>
    </g>
    <g id="xtick_3">
     <g id="line2d_5">
      <path d="M 238.92486 376.56 
L 238.92486 50.4 
" clip-path="url(#p586830bad4)" style="fill: none; stroke-dasharray: 2.96,1.28; stroke-dashoffset: 0; stroke: #cccccc; stroke-opacity: 0.2; stroke-width: 0.8"/>
     </g>
     <g id="line2d_6">
      <g>
       <use xlink:href="#mfe81583132" x="238.92486" y="376.56" style="fill: #808080; stroke: #808080"/>
      </g>
     </g>
     <g id="text_3">
      <!-- −0.5 -->
      <g style="fill: #808080" transform="translate(225.106423 394.880937)scale(0.14 -0.14)">
       <use xlink:href="#Arial-ItalicMT-2212"/>
       <use xlink:href="#Arial-ItalicMT-30" x="58.398438"/>
       <use xlink:href="#Arial-ItalicMT-2e" x="114.013672"/>
       <use xlink:href="#Arial-ItalicMT-35" x="141.796875"/>
      </g>
     </g>
    </g>
    <g id="xtick_4">
     <g id="line2d_7">
      <path d="M 331.296989 376.56 
L 331.296989 50.4 
" clip-path="url(#p586830bad4)" style="fill: none; stroke-dasharray: 2.96,1.28; stroke-dashoffset: 0; stroke: #cccccc; stroke-opacity: 0.2; stroke-width: 0.8"/>
     </g>
     <g id="line2d_8">
      <g>
       <use xlink:href="#mfe81583132" x="331.296989" y="376.56" style="fill: #808080; stroke: #808080"/>
      </g>
     </g>
     <g id="text_4">
      <!-- 0.0 -->
      <g style="fill: #808080" transform="translate(321.566989 394.880937)scale(0.14 -0.14)">
       <use xlink:href="#Arial-ItalicMT-30"/>
       <use xlink:href="#Arial-ItalicMT-2e" x="55.615234"/>
       <use xlink:href="#Arial-ItalicMT-30" x="83.398438"/>
      </g>
     </g>
    </g>
    <g id="xtick_5">
     <g id="line2d_9">
      <path d="M 423.669117 376.56 
L 423.669117 50.4 
" clip-path="url(#p586830bad4)" style="fill: none; stroke-dasharray: 2.96,1.28; stroke-dashoffset: 0; stroke: #cccccc; stroke-opacity: 0.2; stroke-width: 0.8"/>
     </g>
     <g id="line2d_10">
      <g>
       <use xlink:href="#mfe81583132" x="423.669117" y="376.56" style="fill: #808080; stroke: #808080"/>
      </g>
     </g>
     <g id="text_5">
      <!-- 0.5 -->
      <g style="fill: #808080" transform="translate(413.939117 394.880937)scale(0.14 -0.14)">
       <use xlink:href="#Arial-ItalicMT-30"/>
       <use xlink:href="#Arial-ItalicMT-2e" x="55.615234"/>
       <use xlink:href="#Arial-ItalicMT-35" x="83.398438"/>
      </g>
     </g>
    </g>
    <g id="xtick_6">
     <g id="line2d_11">
      <path d="M 516.041245 376.56 
L 516.041245 50.4 
" clip-path="url(#p586830bad4)" style="fill: none; stroke-dasharray: 2.96,1.28; stroke-dashoffset: 0; stroke: #cccccc; stroke-opacity: 0.2; stroke-width: 0.8"/>
     </g>
     <g id="line2d_12">
      <g>
       <use xlink:href="#mfe81583132" x="516.041245" y="376.56" style="fill: #808080; stroke: #808080"/>
      </g>
     </g>
     <g id="text_6">
      <!-- 1.0 -->
      <g style="fill: #808080" transform="translate(506.311245 394.880937)scale(0.14 -0.14)">
       <use xlink:href="#Arial-ItalicMT-31"/>
       <use xlink:href="#Arial-ItalicMT-2e" x="55.615234"/>
       <use xlink:href="#Arial-ItalicMT-30" x="83.398438"/>
      </g>
     </g>
    </g>
    <g id="xtick_7">
     <g id="line2d_13">
      <path d="M 608.413373 376.56 
L 608.413373 50.4 
" clip-path="url(#p586830bad4)" style="fill: none; stroke-dasharray: 2.96,1.28; stroke-dashoffset: 0; stroke: #cccccc; stroke-opacity: 0.2; stroke-width: 0.8"/>
     </g>
     <g id="line2d_14">
      <g>
       <use xlink:href="#mfe81583132" x="608.413373" y="376.56" style="fill: #808080; stroke: #808080"/>
      </g>
     </g>
     <g id="text_7">
      <!-- 1.5 -->
      <g style="fill: #808080" transform="translate(598.683373 394.880937)scale(0.14 -0.14)">
       <use xlink:href="#Arial-ItalicMT-31"/>
       <use xlink:href="#Arial-ItalicMT-2e" x="55.615234"/>
       <use xlink:href="#Arial-ItalicMT-35" x="83.398438"/>
      </g>
     </g>
    </g>
    <g id="text_8">
     <!-- Polarity of Tweets -->
     <g style="fill: #808080" transform="translate(271.290781 411.855)scale(0.14 -0.14)">
      <defs>
       <path id="Arial-BoldItalicMT-50" d="M 1203 0 
L 259 0 
L 1219 4581 
L 3081 4581 
Q 3578 4581 3867 4464 
Q 4156 4347 4325 4076 
Q 4494 3806 4494 3431 
Q 4494 3084 4359 2756 
Q 4225 2428 4029 2231 
Q 3834 2034 3609 1932 
Q 3384 1831 3003 1778 
Q 2781 1747 2172 1747 
L 1569 1747 
L 1203 0 
z
M 1725 2506 
L 2016 2506 
Q 2763 2506 3013 2600 
Q 3263 2694 3406 2900 
Q 3550 3106 3550 3353 
Q 3550 3519 3476 3625 
Q 3403 3731 3270 3779 
Q 3138 3828 2678 3828 
L 2003 3828 
L 1725 2506 
z
" transform="scale(0.015625)"/>
       <path id="Arial-BoldItalicMT-6f" d="M 388 1378 
Q 388 2300 908 2848 
Q 1428 3397 2275 3397 
Q 3009 3397 3421 2992 
Q 3834 2588 3834 1903 
Q 3834 1097 3318 509 
Q 2803 -78 1938 -78 
Q 1469 -78 1106 109 
Q 744 297 566 640 
Q 388 984 388 1378 
z
M 2944 2019 
Q 2944 2338 2758 2530 
Q 2572 2722 2278 2722 
Q 1988 2722 1763 2542 
Q 1538 2363 1413 2020 
Q 1288 1678 1288 1391 
Q 1288 1034 1481 825 
Q 1675 616 1969 616 
Q 2338 616 2588 931 
Q 2944 1378 2944 2019 
z
" transform="scale(0.015625)"/>
       <path id="Arial-BoldItalicMT-6c" d="M 250 0 
L 1209 4581 
L 2103 4581 
L 1147 0 
L 250 0 
z
" transform="scale(0.015625)"/>
       <path id="Arial-BoldItalicMT-61" d="M 1522 2378 
L 647 2453 
Q 797 2897 1170 3147 
Q 1544 3397 2159 3397 
Q 2800 3397 3106 3139 
Q 3413 2881 3413 2509 
Q 3413 2359 3386 2190 
Q 3359 2022 3200 1303 
Q 3069 709 3069 472 
Q 3069 259 3144 0 
L 2272 0 
Q 2219 181 2206 375 
Q 2009 156 1753 39 
Q 1497 -78 1238 -78 
Q 825 -78 556 192 
Q 288 463 288 888 
Q 288 1363 583 1647 
Q 878 1931 1638 1991 
Q 2278 2044 2494 2119 
Q 2550 2306 2550 2419 
Q 2550 2563 2434 2659 
Q 2319 2756 2091 2756 
Q 1850 2756 1711 2657 
Q 1572 2559 1522 2378 
z
M 2375 1547 
Q 2294 1525 2159 1506 
Q 1484 1425 1278 1269 
Q 1131 1156 1131 966 
Q 1131 809 1243 701 
Q 1356 594 1541 594 
Q 1744 594 1923 692 
Q 2103 791 2192 945 
Q 2281 1100 2350 1428 
L 2375 1547 
z
" transform="scale(0.015625)"/>
       <path id="Arial-BoldItalicMT-72" d="M 900 3319 
L 1738 3319 
L 1603 2675 
Q 2072 3397 2619 3397 
Q 2813 3397 3034 3300 
L 2691 2566 
Q 2569 2609 2431 2609 
Q 2200 2609 1961 2434 
Q 1722 2259 1587 1967 
Q 1453 1675 1322 1041 
L 1103 0 
L 206 0 
L 900 3319 
z
" transform="scale(0.015625)"/>
       <path id="Arial-BoldItalicMT-69" d="M 1213 4581 
L 2109 4581 
L 1941 3769 
L 1044 3769 
L 1213 4581 
z
M 950 3319 
L 1847 3319 
L 1153 0 
L 256 0 
L 950 3319 
z
" transform="scale(0.015625)"/>
       <path id="Arial-BoldItalicMT-74" d="M 481 2653 
L 619 3319 
L 1056 3319 
L 1166 3850 
L 2194 4469 
L 1953 3319 
L 2500 3319 
L 2363 2653 
L 1813 2653 
L 1522 1263 
Q 1444 884 1444 831 
Q 1444 728 1509 670 
Q 1575 613 1747 613 
Q 1806 613 2044 634 
L 1903 -31 
Q 1672 -78 1428 -78 
Q 953 -78 737 105 
Q 522 288 522 613 
Q 522 766 638 1319 
L 916 2653 
L 481 2653 
z
" transform="scale(0.015625)"/>
       <path id="Arial-BoldItalicMT-79" d="M 534 3319 
L 1428 3319 
L 1653 1666 
Q 1738 1028 1747 772 
Q 1922 1281 2228 1847 
L 3022 3319 
L 3972 3319 
L 1922 -325 
Q 1669 -778 1523 -959 
Q 1378 -1141 1173 -1244 
Q 969 -1347 681 -1347 
Q 397 -1347 41 -1247 
L 119 -578 
Q 281 -625 434 -625 
Q 847 -625 1113 0 
L 534 3319 
z
" transform="scale(0.015625)"/>
       <path id="Arial-BoldItalicMT-20" transform="scale(0.015625)"/>
       <path id="Arial-BoldItalicMT-66" d="M 2569 3319 
L 2431 2663 
L 1797 2663 
L 1241 0 
L 344 0 
L 900 2663 
L 400 2663 
L 538 3319 
L 1038 3319 
L 1109 3659 
Q 1197 4078 1275 4225 
Q 1381 4425 1592 4542 
Q 1803 4659 2144 4659 
Q 2556 4659 3013 4509 
L 2838 3869 
Q 2516 3978 2316 3978 
Q 2163 3978 2088 3881 
Q 2038 3819 1984 3553 
L 1934 3319 
L 2569 3319 
z
" transform="scale(0.015625)"/>
       <path id="Arial-BoldItalicMT-54" d="M 2256 0 
L 1313 0 
L 2113 3816 
L 769 3816 
L 928 4581 
L 4538 4581 
L 4378 3816 
L 3053 3816 
L 2256 0 
z
" transform="scale(0.015625)"/>
       <path id="Arial-BoldItalicMT-77" d="M 3725 0 
L 2881 0 
L 2719 2113 
L 1706 0 
L 875 0 
L 459 3319 
L 1256 3319 
L 1488 1094 
L 2522 3319 
L 3338 3319 
L 3450 1094 
L 4478 3319 
L 5378 3319 
L 3725 0 
z
" transform="scale(0.015625)"/>
       <path id="Arial-BoldItalicMT-65" d="M 3488 1381 
L 1238 1381 
Q 1234 1328 1234 1300 
Q 1234 969 1423 766 
Q 1613 563 1884 563 
Q 2331 563 2581 1025 
L 3384 891 
Q 3150 406 2758 164 
Q 2366 -78 1878 -78 
Q 1209 -78 790 345 
Q 372 769 372 1466 
Q 372 2147 750 2678 
Q 1266 3397 2222 3397 
Q 2831 3397 3190 3020 
Q 3550 2644 3550 1966 
Q 3550 1641 3488 1381 
z
M 2731 1928 
Q 2734 1988 2734 2019 
Q 2734 2388 2568 2572 
Q 2403 2756 2125 2756 
Q 1847 2756 1626 2547 
Q 1406 2338 1328 1928 
L 2731 1928 
z
" transform="scale(0.015625)"/>
       <path id="Arial-BoldItalicMT-73" d="M 141 928 
L 1009 1066 
Q 1125 791 1297 677 
Q 1469 563 1766 563 
Q 2072 563 2256 700 
Q 2384 794 2384 928 
Q 2384 1019 2319 1091 
Q 2250 1159 1947 1259 
Q 1134 1528 941 1684 
Q 638 1928 638 2322 
Q 638 2716 931 3000 
Q 1341 3397 2147 3397 
Q 2788 3397 3116 3162 
Q 3444 2928 3531 2528 
L 2703 2384 
Q 2638 2566 2491 2656 
Q 2291 2778 2009 2778 
Q 1728 2778 1604 2684 
Q 1481 2591 1481 2469 
Q 1481 2344 1606 2263 
Q 1684 2213 2109 2088 
Q 2766 1897 2988 1713 
Q 3300 1453 3300 1088 
Q 3300 616 2903 269 
Q 2506 -78 1784 -78 
Q 1066 -78 673 186 
Q 281 450 141 928 
z
" transform="scale(0.015625)"/>
      </defs>
      <use xlink:href="#Arial-BoldItalicMT-50"/>
      <use xlink:href="#Arial-BoldItalicMT-6f" x="66.699219"/>
      <use xlink:href="#Arial-BoldItalicMT-6c" x="127.783203"/>
      <use xlink:href="#Arial-BoldItalicMT-61" x="155.566406"/>
      <use xlink:href="#Arial-BoldItalicMT-72" x="211.181641"/>
      <use xlink:href="#Arial-BoldItalicMT-69" x="250.097656"/>
      <use xlink:href="#Arial-BoldItalicMT-74" x="277.880859"/>
      <use xlink:href="#Arial-BoldItalicMT-79" x="311.181641"/>
      <use xlink:href="#Arial-BoldItalicMT-20" x="366.796875"/>
      <use xlink:href="#Arial-BoldItalicMT-6f" x="394.580078"/>
      <use xlink:href="#Arial-BoldItalicMT-66" x="455.664062"/>
      <use xlink:href="#Arial-BoldItalicMT-20" x="488.964844"/>
      <use xlink:href="#Arial-BoldItalicMT-54" x="516.748047"/>
      <use xlink:href="#Arial-BoldItalicMT-77" x="574.082031"/>
      <use xlink:href="#Arial-BoldItalicMT-65" x="651.865234"/>
      <use xlink:href="#Arial-BoldItalicMT-65" x="707.480469"/>
      <use xlink:href="#Arial-BoldItalicMT-74" x="763.095703"/>
      <use xlink:href="#Arial-BoldItalicMT-73" x="796.396484"/>
     </g>
    </g>
   </g>
   <g id="matplotlib.axis_2">
    <g id="ytick_1">
     <g id="line2d_15">
      <path d="M 51.9275 376.56 
L 609.9275 376.56 
" clip-path="url(#p586830bad4)" style="fill: none; stroke-dasharray: 2.96,1.28; stroke-dashoffset: 0; stroke: #cccccc; stroke-opacity: 0.2; stroke-width: 0.8"/>
     </g>
     <g id="line2d_16">
      <defs>
       <path id="m38123f9342" d="M 0 0 
L -4.8 0 
" style="stroke: #808080"/>
      </defs>
      <g>
       <use xlink:href="#m38123f9342" x="51.9275" y="376.56" style="fill: #808080; stroke: #808080"/>
      </g>
     </g>
     <g id="text_9">
      <!-- 0.0 -->
      <g style="fill: #808080" transform="translate(24.1675 381.570469)scale(0.14 -0.14)">
       <use xlink:href="#Arial-ItalicMT-30"/>
       <use xlink:href="#Arial-ItalicMT-2e" x="55.615234"/>
       <use xlink:href="#Arial-ItalicMT-30" x="83.398438"/>
      </g>
     </g>
    </g>
    <g id="ytick_2">
     <g id="line2d_17">
      <path d="M 51.9275 334.302897 
L 609.9275 334.302897 
" clip-path="url(#p586830bad4)" style="fill: none; stroke-dasharray: 2.96,1.28; stroke-dashoffset: 0; stroke: #cccccc; stroke-opacity: 0.2; stroke-width: 0.8"/>
     </g>
     <g id="line2d_18">
      <g>
       <use xlink:href="#m38123f9342" x="51.9275" y="334.302897" style="fill: #808080; stroke: #808080"/>
      </g>
     </g>
     <g id="text_10">
      <!-- 0.2 -->
      <g style="fill: #808080" transform="translate(24.1675 339.313366)scale(0.14 -0.14)">
       <defs>
        <path id="Arial-ItalicMT-32" d="M 375 0 
Q 463 409 617 686 
Q 772 963 1028 1211 
Q 1284 1459 2016 2044 
Q 2459 2397 2622 2566 
Q 2856 2809 2963 3044 
Q 3034 3203 3034 3391 
Q 3034 3706 2811 3926 
Q 2588 4147 2263 4147 
Q 1941 4147 1700 3923 
Q 1459 3700 1356 3206 
L 803 3288 
Q 884 3897 1276 4248 
Q 1669 4600 2253 4600 
Q 2644 4600 2961 4437 
Q 3278 4275 3437 3981 
Q 3597 3688 3597 3375 
Q 3597 2919 3272 2497 
Q 3072 2234 2097 1463 
Q 1678 1131 1473 918 
Q 1269 706 1166 519 
L 3216 519 
L 3106 0 
L 375 0 
z
" transform="scale(0.015625)"/>
       </defs>
       <use xlink:href="#Arial-ItalicMT-30"/>
       <use xlink:href="#Arial-ItalicMT-2e" x="55.615234"/>
       <use xlink:href="#Arial-ItalicMT-32" x="83.398438"/>
      </g>
     </g>
    </g>
    <g id="ytick_3">
     <g id="line2d_19">
      <path d="M 51.9275 292.045795 
L 609.9275 292.045795 
" clip-path="url(#p586830bad4)" style="fill: none; stroke-dasharray: 2.96,1.28; stroke-dashoffset: 0; stroke: #cccccc; stroke-opacity: 0.2; stroke-width: 0.8"/>
     </g>
     <g id="line2d_20">
      <g>
       <use xlink:href="#m38123f9342" x="51.9275" y="292.045795" style="fill: #808080; stroke: #808080"/>
      </g>
     </g>
     <g id="text_11">
      <!-- 0.4 -->
      <g style="fill: #808080" transform="translate(24.1675 297.056263)scale(0.14 -0.14)">
       <defs>
        <path id="Arial-ItalicMT-34" d="M 1913 0 
L 2159 1169 
L 291 1169 
L 409 1728 
L 2975 4581 
L 3438 4581 
L 2828 1669 
L 3472 1669 
L 3369 1169 
L 2725 1169 
L 2478 0 
L 1913 0 
z
M 2263 1669 
L 2663 3581 
L 956 1669 
L 2263 1669 
z
" transform="scale(0.015625)"/>
       </defs>
       <use xlink:href="#Arial-ItalicMT-30"/>
       <use xlink:href="#Arial-ItalicMT-2e" x="55.615234"/>
       <use xlink:href="#Arial-ItalicMT-34" x="83.398438"/>
      </g>
     </g>
    </g>
    <g id="ytick_4">
     <g id="line2d_21">
      <path d="M 51.9275 249.788692 
L 609.9275 249.788692 
" clip-path="url(#p586830bad4)" style="fill: none; stroke-dasharray: 2.96,1.28; stroke-dashoffset: 0; stroke: #cccccc; stroke-opacity: 0.2; stroke-width: 0.8"/>
     </g>
     <g id="line2d_22">
      <g>
       <use xlink:href="#m38123f9342" x="51.9275" y="249.788692" style="fill: #808080; stroke: #808080"/>
      </g>
     </g>
     <g id="text_12">
      <!-- 0.6 -->
      <g style="fill: #808080" transform="translate(24.1675 254.799161)scale(0.14 -0.14)">
       <defs>
        <path id="Arial-ItalicMT-36" d="M 1288 2656 
Q 1525 2853 1761 2951 
Q 1997 3050 2228 3050 
Q 2750 3050 3090 2694 
Q 3431 2338 3431 1734 
Q 3431 956 2925 400 
Q 2488 -78 1863 -78 
Q 1294 -78 914 339 
Q 534 756 534 1528 
Q 534 2219 778 2956 
Q 966 3522 1242 3889 
Q 1519 4256 1830 4428 
Q 2141 4600 2531 4600 
Q 3000 4600 3297 4308 
Q 3594 4016 3634 3472 
L 3109 3422 
Q 3066 3794 2898 3959 
Q 2731 4125 2491 4125 
Q 2238 4125 1981 3928 
Q 1725 3731 1540 3345 
Q 1356 2959 1288 2656 
z
M 1091 1288 
Q 1091 900 1331 636 
Q 1572 372 1875 372 
Q 2088 372 2325 533 
Q 2563 694 2728 1022 
Q 2894 1350 2894 1675 
Q 2894 2094 2664 2345 
Q 2434 2597 2109 2597 
Q 1734 2597 1412 2230 
Q 1091 1863 1091 1288 
z
" transform="scale(0.015625)"/>
       </defs>
       <use xlink:href="#Arial-ItalicMT-30"/>
       <use xlink:href="#Arial-ItalicMT-2e" x="55.615234"/>
       <use xlink:href="#Arial-ItalicMT-36" x="83.398438"/>
      </g>
     </g>
    </g>
    <g id="ytick_5">
     <g id="line2d_23">
      <path d="M 51.9275 207.531589 
L 609.9275 207.531589 
" clip-path="url(#p586830bad4)" style="fill: none; stroke-dasharray: 2.96,1.28; stroke-dashoffset: 0; stroke: #cccccc; stroke-opacity: 0.2; stroke-width: 0.8"/>
     </g>
     <g id="line2d_24">
      <g>
       <use xlink:href="#m38123f9342" x="51.9275" y="207.531589" style="fill: #808080; stroke: #808080"/>
      </g>
     </g>
     <g id="text_13">
      <!-- 0.8 -->
      <g style="fill: #808080" transform="translate(24.1675 212.542058)scale(0.14 -0.14)">
       <defs>
        <path id="Arial-ItalicMT-38" d="M 1444 2519 
Q 1188 2659 1059 2879 
Q 931 3100 931 3353 
Q 931 3769 1231 4122 
Q 1631 4600 2316 4600 
Q 2919 4600 3266 4276 
Q 3613 3953 3613 3484 
Q 3613 3150 3425 2881 
Q 3238 2613 2838 2453 
Q 3113 2281 3231 2088 
Q 3384 1834 3384 1497 
Q 3384 881 2948 400 
Q 2513 -81 1788 -81 
Q 1209 -81 843 275 
Q 478 631 478 1166 
Q 478 1669 737 2030 
Q 997 2391 1444 2519 
z
M 1488 3328 
Q 1488 3034 1677 2854 
Q 1866 2675 2197 2675 
Q 2584 2675 2826 2911 
Q 3069 3147 3069 3491 
Q 3069 3781 2880 3964 
Q 2691 4147 2359 4147 
Q 2109 4147 1900 4031 
Q 1691 3916 1589 3717 
Q 1488 3519 1488 3328 
z
M 1047 1119 
Q 1047 928 1139 753 
Q 1231 578 1418 475 
Q 1606 372 1847 372 
Q 2306 372 2591 803 
Q 2816 1141 2816 1531 
Q 2816 1850 2608 2053 
Q 2400 2256 2063 2256 
Q 1638 2256 1342 1940 
Q 1047 1625 1047 1119 
z
" transform="scale(0.015625)"/>
       </defs>
       <use xlink:href="#Arial-ItalicMT-30"/>
       <use xlink:href="#Arial-ItalicMT-2e" x="55.615234"/>
       <use xlink:href="#Arial-ItalicMT-38" x="83.398438"/>
      </g>
     </g>
    </g>
    <g id="ytick_6">
     <g id="line2d_25">
      <path d="M 51.9275 165.274486 
L 609.9275 165.274486 
" clip-path="url(#p586830bad4)" style="fill: none; stroke-dasharray: 2.96,1.28; stroke-dashoffset: 0; stroke: #cccccc; stroke-opacity: 0.2; stroke-width: 0.8"/>
     </g>
     <g id="line2d_26">
      <g>
       <use xlink:href="#m38123f9342" x="51.9275" y="165.274486" style="fill: #808080; stroke: #808080"/>
      </g>
     </g>
     <g id="text_14">
      <!-- 1.0 -->
      <g style="fill: #808080" transform="translate(24.1675 170.284955)scale(0.14 -0.14)">
       <use xlink:href="#Arial-ItalicMT-31"/>
       <use xlink:href="#Arial-ItalicMT-2e" x="55.615234"/>
       <use xlink:href="#Arial-ItalicMT-30" x="83.398438"/>
      </g>
     </g>
    </g>
    <g id="ytick_7">
     <g id="line2d_27">
      <path d="M 51.9275 123.017384 
L 609.9275 123.017384 
" clip-path="url(#p586830bad4)" style="fill: none; stroke-dasharray: 2.96,1.28; stroke-dashoffset: 0; stroke: #cccccc; stroke-opacity: 0.2; stroke-width: 0.8"/>
     </g>
     <g id="line2d_28">
      <g>
       <use xlink:href="#m38123f9342" x="51.9275" y="123.017384" style="fill: #808080; stroke: #808080"/>
      </g>
     </g>
     <g id="text_15">
      <!-- 1.2 -->
      <g style="fill: #808080" transform="translate(24.1675 128.027852)scale(0.14 -0.14)">
       <use xlink:href="#Arial-ItalicMT-31"/>
       <use xlink:href="#Arial-ItalicMT-2e" x="55.615234"/>
       <use xlink:href="#Arial-ItalicMT-32" x="83.398438"/>
      </g>
     </g>
    </g>
    <g id="ytick_8">
     <g id="line2d_29">
      <path d="M 51.9275 80.760281 
L 609.9275 80.760281 
" clip-path="url(#p586830bad4)" style="fill: none; stroke-dasharray: 2.96,1.28; stroke-dashoffset: 0; stroke: #cccccc; stroke-opacity: 0.2; stroke-width: 0.8"/>
     </g>
     <g id="line2d_30">
      <g>
       <use xlink:href="#m38123f9342" x="51.9275" y="80.760281" style="fill: #808080; stroke: #808080"/>
      </g>
     </g>
     <g id="text_16">
      <!-- 1.4 -->
      <g style="fill: #808080" transform="translate(24.1675 85.77075)scale(0.14 -0.14)">
       <use xlink:href="#Arial-ItalicMT-31"/>
       <use xlink:href="#Arial-ItalicMT-2e" x="55.615234"/>
       <use xlink:href="#Arial-ItalicMT-34" x="83.398438"/>
      </g>
     </g>
    </g>
    <g id="text_17">
     <!-- Density -->
     <g style="fill: #808080" transform="translate(17.220937 238.764219)rotate(-90)scale(0.14 -0.14)">
      <defs>
       <path id="Arial-BoldItalicMT-44" d="M 278 0 
L 1238 4581 
L 2472 4581 
Q 2988 4581 3131 4566 
Q 3416 4538 3639 4450 
Q 3863 4363 4045 4205 
Q 4228 4047 4361 3825 
Q 4494 3603 4566 3314 
Q 4638 3025 4638 2681 
Q 4638 1941 4355 1367 
Q 4072 794 3644 456 
Q 3316 194 2797 69 
Q 2503 0 1894 0 
L 278 0 
z
M 1375 738 
L 1853 738 
Q 2372 738 2605 802 
Q 2838 866 3031 1041 
Q 3309 1294 3500 1716 
Q 3691 2138 3691 2709 
Q 3691 3197 3533 3442 
Q 3375 3688 3144 3769 
Q 2981 3825 2566 3825 
L 2019 3825 
L 1375 738 
z
" transform="scale(0.015625)"/>
       <path id="Arial-BoldItalicMT-6e" d="M 963 3319 
L 1813 3319 
L 1725 2888 
Q 2044 3163 2320 3280 
Q 2597 3397 2903 3397 
Q 3313 3397 3548 3162 
Q 3784 2928 3784 2541 
Q 3784 2366 3681 1878 
L 3291 0 
L 2394 0 
L 2788 1884 
Q 2875 2306 2875 2388 
Q 2875 2559 2773 2657 
Q 2672 2756 2491 2756 
Q 2294 2756 2053 2590 
Q 1813 2425 1675 2153 
Q 1575 1959 1450 1363 
L 1166 0 
L 269 0 
L 963 3319 
z
" transform="scale(0.015625)"/>
      </defs>
      <use xlink:href="#Arial-BoldItalicMT-44"/>
      <use xlink:href="#Arial-BoldItalicMT-65" x="72.216797"/>
      <use xlink:href="#Arial-BoldItalicMT-6e" x="127.832031"/>
      <use xlink:href="#Arial-BoldItalicMT-73" x="188.916016"/>
      <use xlink:href="#Arial-BoldItalicMT-69" x="244.53125"/>
      <use xlink:href="#Arial-BoldItalicMT-74" x="272.314453"/>
      <use xlink:href="#Arial-BoldItalicMT-79" x="305.615234"/>
     </g>
    </g>
   </g>
   <g id="PolyCollection_1">
    <defs>
     <path id="m5e6e220553" d="M 129.794487 -46.443979 
L 129.794487 -45.441563 
L 131.835958 -45.441563 
L 133.877429 -45.441563 
L 135.918899 -45.441563 
L 137.96037 -45.441563 
L 140.001841 -45.441563 
L 142.043312 -45.441563 
L 144.084782 -45.441563 
L 146.126253 -45.441563 
L 148.167724 -45.441563 
L 150.209194 -45.441563 
L 152.250665 -45.441563 
L 154.292136 -45.441563 
L 156.333606 -45.441563 
L 158.375077 -45.441563 
L 160.416548 -45.441563 
L 162.458019 -45.441563 
L 164.499489 -45.441563 
L 166.54096 -45.441563 
L 168.582431 -45.441563 
L 170.623901 -45.441563 
L 172.665372 -45.441563 
L 174.706843 -45.441563 
L 176.748313 -45.441563 
L 178.789784 -45.441563 
L 180.831255 -45.441563 
L 182.872726 -45.441563 
L 184.914196 -45.441563 
L 186.955667 -45.441563 
L 188.997138 -45.441563 
L 191.038608 -45.441563 
L 193.080079 -45.441563 
L 195.12155 -45.441563 
L 197.16302 -45.441563 
L 199.204491 -45.441563 
L 201.245962 -45.441563 
L 203.287433 -45.441563 
L 205.328903 -45.441563 
L 207.370374 -45.441563 
L 209.411845 -45.441563 
L 211.453315 -45.441563 
L 213.494786 -45.441563 
L 215.536257 -45.441563 
L 217.577727 -45.441563 
L 219.619198 -45.441563 
L 221.660669 -45.441563 
L 223.70214 -45.441563 
L 225.74361 -45.441563 
L 227.785081 -45.441563 
L 229.826552 -45.441563 
L 231.868022 -45.441563 
L 233.909493 -45.441563 
L 235.950964 -45.441563 
L 237.992434 -45.441563 
L 240.033905 -45.441563 
L 242.075376 -45.441563 
L 244.116847 -45.441563 
L 246.158317 -45.441563 
L 248.199788 -45.441563 
L 250.241259 -45.441563 
L 252.282729 -45.441563 
L 254.3242 -45.441563 
L 256.365671 -45.441563 
L 258.407141 -45.441563 
L 260.448612 -45.441563 
L 262.490083 -45.441563 
L 264.531554 -45.441563 
L 266.573024 -45.441563 
L 268.614495 -45.441563 
L 270.655966 -45.441563 
L 272.697436 -45.441563 
L 274.738907 -45.441563 
L 276.780378 -45.441563 
L 278.821848 -45.441563 
L 280.863319 -45.441563 
L 282.90479 -45.441563 
L 284.946261 -45.441563 
L 286.987731 -45.441563 
L 289.029202 -45.441563 
L 291.070673 -45.441563 
L 293.112143 -45.441563 
L 295.153614 -45.441563 
L 297.195085 -45.441563 
L 299.236555 -45.441563 
L 301.278026 -45.441563 
L 303.319497 -45.441563 
L 305.360968 -45.441563 
L 307.402438 -45.441563 
L 309.443909 -45.441563 
L 311.48538 -45.441563 
L 313.52685 -45.441563 
L 315.568321 -45.441563 
L 317.609792 -45.441563 
L 319.651262 -45.441563 
L 321.692733 -45.441563 
L 323.734204 -45.441563 
L 325.775674 -45.441563 
L 327.817145 -45.441563 
L 329.858616 -45.441563 
L 331.900087 -45.441563 
L 333.941557 -45.441563 
L 335.983028 -45.441563 
L 338.024499 -45.441563 
L 340.065969 -45.441563 
L 342.10744 -45.441563 
L 344.148911 -45.441563 
L 346.190381 -45.441563 
L 348.231852 -45.441563 
L 350.273323 -45.441563 
L 352.314794 -45.441563 
L 354.356264 -45.441563 
L 356.397735 -45.441563 
L 358.439206 -45.441563 
L 360.480676 -45.441563 
L 362.522147 -45.441563 
L 364.563618 -45.441563 
L 366.605088 -45.441563 
L 368.646559 -45.441563 
L 370.68803 -45.441563 
L 372.729501 -45.441563 
L 374.770971 -45.441563 
L 376.812442 -45.441563 
L 378.853913 -45.441563 
L 380.895383 -45.441563 
L 382.936854 -45.441563 
L 384.978325 -45.441563 
L 387.019795 -45.441563 
L 389.061266 -45.441563 
L 391.102737 -45.441563 
L 393.144208 -45.441563 
L 395.185678 -45.441563 
L 397.227149 -45.441563 
L 399.26862 -45.441563 
L 401.31009 -45.441563 
L 403.351561 -45.441563 
L 405.393032 -45.441563 
L 407.434502 -45.441563 
L 409.475973 -45.441563 
L 411.517444 -45.441563 
L 413.558915 -45.441563 
L 415.600385 -45.441563 
L 417.641856 -45.441563 
L 419.683327 -45.441563 
L 421.724797 -45.441563 
L 423.766268 -45.441563 
L 425.807739 -45.441563 
L 427.849209 -45.441563 
L 429.89068 -45.441563 
L 431.932151 -45.441563 
L 433.973622 -45.441563 
L 436.015092 -45.441563 
L 438.056563 -45.441563 
L 440.098034 -45.441563 
L 442.139504 -45.441563 
L 444.180975 -45.441563 
L 446.222446 -45.441563 
L 448.263916 -45.441563 
L 450.305387 -45.441563 
L 452.346858 -45.441563 
L 454.388329 -45.441563 
L 456.429799 -45.441563 
L 458.47127 -45.441563 
L 460.512741 -45.441563 
L 462.554211 -45.441563 
L 464.595682 -45.441563 
L 466.637153 -45.441563 
L 468.678623 -45.441563 
L 470.720094 -45.441563 
L 472.761565 -45.441563 
L 474.803036 -45.441563 
L 476.844506 -45.441563 
L 478.885977 -45.441563 
L 480.927448 -45.441563 
L 482.968918 -45.441563 
L 485.010389 -45.441563 
L 487.05186 -45.441563 
L 489.09333 -45.441563 
L 491.134801 -45.441563 
L 493.176272 -45.441563 
L 495.217743 -45.441563 
L 497.259213 -45.441563 
L 499.300684 -45.441563 
L 501.342155 -45.441563 
L 503.383625 -45.441563 
L 505.425096 -45.441563 
L 507.466567 -45.441563 
L 509.508037 -45.441563 
L 511.549508 -45.441563 
L 513.590979 -45.441563 
L 515.63245 -45.441563 
L 517.67392 -45.441563 
L 519.715391 -45.441563 
L 521.756862 -45.441563 
L 523.798332 -45.441563 
L 525.839803 -45.441563 
L 527.881274 -45.441563 
L 529.922744 -45.441563 
L 531.964215 -45.441563 
L 534.005686 -45.441563 
L 536.047156 -45.441563 
L 536.047156 -45.70836 
L 536.047156 -45.70836 
L 534.005686 -45.800894 
L 531.964215 -45.921377 
L 529.922744 -46.07678 
L 527.881274 -46.275339 
L 525.839803 -46.526641 
L 523.798332 -46.841681 
L 521.756862 -47.232864 
L 519.715391 -47.713946 
L 517.67392 -48.299896 
L 515.63245 -49.006673 
L 513.590979 -49.850894 
L 511.549508 -50.849406 
L 509.508037 -52.01875 
L 507.466567 -53.374518 
L 505.425096 -54.93064 
L 503.383625 -56.698594 
L 501.342155 -58.686596 
L 499.300684 -60.898789 
L 497.259213 -63.33449 
L 495.217743 -65.987533 
L 493.176272 -68.845764 
L 491.134801 -71.890736 
L 489.09333 -75.097631 
L 487.05186 -78.435463 
L 485.010389 -81.867557 
L 482.968918 -85.352322 
L 480.927448 -88.844293 
L 478.885977 -92.295412 
L 476.844506 -95.656494 
L 474.803036 -98.878815 
L 472.761565 -101.915748 
L 470.720094 -104.724356 
L 468.678623 -107.266864 
L 466.637153 -109.511932 
L 464.595682 -111.435656 
L 462.554211 -113.02225 
L 460.512741 -114.264372 
L 458.47127 -115.163079 
L 456.429799 -115.727434 
L 454.388329 -115.973778 
L 452.346858 -115.924734 
L 450.305387 -115.607999 
L 448.263916 -115.055003 
L 446.222446 -114.299516 
L 444.180975 -113.376276 
L 442.139504 -112.319716 
L 440.098034 -111.16285 
L 438.056563 -109.936365 
L 436.015092 -108.667949 
L 433.973622 -107.381868 
L 431.932151 -106.098796 
L 429.89068 -104.835866 
L 427.849209 -103.60692 
L 425.807739 -102.422926 
L 423.766268 -101.292492 
L 421.724797 -100.222453 
L 419.683327 -99.218469 
L 417.641856 -98.285603 
L 415.600385 -97.428827 
L 413.558915 -96.65345 
L 411.517444 -95.965431 
L 409.475973 -95.371578 
L 407.434502 -94.87963 
L 405.393032 -94.498229 
L 403.351561 -94.236791 
L 401.31009 -94.105302 
L 399.26862 -94.114043 
L 397.227149 -94.273276 
L 395.185678 -94.592899 
L 393.144208 -95.082094 
L 391.102737 -95.748964 
L 389.061266 -96.600192 
L 387.019795 -97.640705 
L 384.978325 -98.873357 
L 382.936854 -100.298642 
L 380.895383 -101.91442 
L 378.853913 -103.715675 
L 376.812442 -105.694302 
L 374.770971 -107.83894 
L 372.729501 -110.134846 
L 370.68803 -112.563834 
L 368.646559 -115.104291 
L 366.605088 -117.731288 
L 364.563618 -120.41679 
L 362.522147 -123.129995 
L 360.480676 -125.837797 
L 358.439206 -128.505386 
L 356.397735 -131.096975 
L 354.356264 -133.576646 
L 352.314794 -135.909296 
L 350.273323 -138.061648 
L 348.231852 -140.003301 
L 346.190381 -141.70776 
L 344.148911 -143.153416 
L 342.10744 -144.324406 
L 340.065969 -145.211331 
L 338.024499 -145.811762 
L 335.983028 -146.130512 
L 333.941557 -146.179662 
L 331.900087 -145.978294 
L 329.858616 -145.551973 
L 327.817145 -144.931969 
L 325.775674 -144.154266 
L 323.734204 -143.258386 
L 321.692733 -142.28611 
L 319.651262 -141.280123 
L 317.609792 -140.282684 
L 315.568321 -139.334358 
L 313.52685 -138.472881 
L 311.48538 -137.73221 
L 309.443909 -137.141791 
L 307.402438 -136.72608 
L 305.360968 -136.504312 
L 303.319497 -136.490536 
L 301.278026 -136.693875 
L 299.236555 -137.118999 
L 297.195085 -137.766767 
L 295.153614 -138.634987 
L 293.112143 -139.719256 
L 291.070673 -141.013829 
L 289.029202 -142.512474 
L 286.987731 -144.209278 
L 284.946261 -146.099369 
L 282.90479 -148.179544 
L 280.863319 -150.448775 
L 278.821848 -152.908606 
L 276.780378 -155.563422 
L 274.738907 -158.420616 
L 272.697436 -161.490638 
L 270.655966 -164.786952 
L 268.614495 -168.325891 
L 266.573024 -172.126409 
L 264.531554 -176.209732 
L 262.490083 -180.598881 
L 260.448612 -185.318058 
L 258.407141 -190.391868 
L 256.365671 -195.844363 
L 254.3242 -201.697877 
L 252.282729 -207.971652 
L 250.241259 -214.680242 
L 248.199788 -221.831727 
L 246.158317 -229.425758 
L 244.116847 -237.451502 
L 242.075376 -245.88556 
L 240.033905 -254.689972 
L 237.992434 -263.810424 
L 235.950964 -273.17481 
L 233.909493 -282.692283 
L 231.868022 -292.252948 
L 229.826552 -301.728323 
L 227.785081 -310.972677 
L 225.74361 -319.825317 
L 223.70214 -328.113825 
L 221.660669 -335.658239 
L 219.619198 -342.276049 
L 217.577727 -347.787873 
L 215.536257 -352.023582 
L 213.494786 -354.828606 
L 211.453315 -356.070134 
L 209.411845 -355.642871 
L 207.370374 -353.47404 
L 205.328903 -349.527345 
L 203.287433 -343.805629 
L 201.245962 -336.352057 
L 199.204491 -327.24971 
L 197.16302 -316.619576 
L 195.12155 -304.61701 
L 193.080079 -291.426821 
L 191.038608 -277.257233 
L 188.997138 -262.333018 
L 186.955667 -246.88814 
L 184.914196 -231.158286 
L 182.872726 -215.373622 
L 180.831255 -199.752129 
L 178.789784 -184.493776 
L 176.748313 -169.775777 
L 174.706843 -155.749054 
L 172.665372 -142.535996 
L 170.623901 -130.229493 
L 168.582431 -118.893188 
L 166.54096 -108.562791 
L 164.499489 -99.248301 
L 162.458019 -90.936914 
L 160.416548 -83.596412 
L 158.375077 -77.178808 
L 156.333606 -71.624054 
L 154.292136 -66.86363 
L 152.250665 -62.823887 
L 150.209194 -59.429013 
L 148.167724 -56.603573 
L 146.126253 -54.274579 
L 144.084782 -52.373087 
L 142.043312 -50.835332 
L 140.001841 -49.60346 
L 137.96037 -48.625889 
L 135.918899 -47.857376 
L 133.877429 -47.258841 
L 131.835958 -46.797018 
L 129.794487 -46.443979 
z
" style="stroke: #d55e00; stroke-width: 0.8"/>
    </defs>
    <g clip-path="url(#p586830bad4)">
     <use xlink:href="#m5e6e220553" x="0" y="422.001562" style="fill: #d55e00; fill-opacity: 0.25; stroke: #d55e00; stroke-width: 0.8"/>
    </g>
   </g>
   <g id="PolyCollection_2">
    <defs>
     <path id="m4b662d86ac" d="M 77.291136 -45.51709 
L 77.291136 -45.441563 
L 79.840246 -45.441563 
L 82.389355 -45.441563 
L 84.938464 -45.441563 
L 87.487573 -45.441563 
L 90.036682 -45.441563 
L 92.585791 -45.441563 
L 95.134901 -45.441563 
L 97.68401 -45.441563 
L 100.233119 -45.441563 
L 102.782228 -45.441563 
L 105.331337 -45.441563 
L 107.880447 -45.441563 
L 110.429556 -45.441563 
L 112.978665 -45.441563 
L 115.527774 -45.441563 
L 118.076883 -45.441563 
L 120.625992 -45.441563 
L 123.175102 -45.441563 
L 125.724211 -45.441563 
L 128.27332 -45.441563 
L 130.822429 -45.441563 
L 133.371538 -45.441563 
L 135.920648 -45.441563 
L 138.469757 -45.441563 
L 141.018866 -45.441563 
L 143.567975 -45.441563 
L 146.117084 -45.441563 
L 148.666193 -45.441563 
L 151.215303 -45.441563 
L 153.764412 -45.441563 
L 156.313521 -45.441563 
L 158.86263 -45.441563 
L 161.411739 -45.441563 
L 163.960849 -45.441563 
L 166.509958 -45.441563 
L 169.059067 -45.441563 
L 171.608176 -45.441563 
L 174.157285 -45.441563 
L 176.706394 -45.441563 
L 179.255504 -45.441563 
L 181.804613 -45.441563 
L 184.353722 -45.441563 
L 186.902831 -45.441563 
L 189.45194 -45.441563 
L 192.00105 -45.441563 
L 194.550159 -45.441563 
L 197.099268 -45.441563 
L 199.648377 -45.441563 
L 202.197486 -45.441563 
L 204.746595 -45.441563 
L 207.295705 -45.441563 
L 209.844814 -45.441563 
L 212.393923 -45.441563 
L 214.943032 -45.441563 
L 217.492141 -45.441563 
L 220.041251 -45.441563 
L 222.59036 -45.441563 
L 225.139469 -45.441563 
L 227.688578 -45.441563 
L 230.237687 -45.441563 
L 232.786796 -45.441563 
L 235.335906 -45.441563 
L 237.885015 -45.441563 
L 240.434124 -45.441563 
L 242.983233 -45.441563 
L 245.532342 -45.441563 
L 248.081452 -45.441563 
L 250.630561 -45.441563 
L 253.17967 -45.441563 
L 255.728779 -45.441563 
L 258.277888 -45.441563 
L 260.826997 -45.441563 
L 263.376107 -45.441563 
L 265.925216 -45.441563 
L 268.474325 -45.441563 
L 271.023434 -45.441563 
L 273.572543 -45.441563 
L 276.121653 -45.441563 
L 278.670762 -45.441563 
L 281.219871 -45.441563 
L 283.76898 -45.441563 
L 286.318089 -45.441563 
L 288.867198 -45.441563 
L 291.416308 -45.441563 
L 293.965417 -45.441563 
L 296.514526 -45.441563 
L 299.063635 -45.441563 
L 301.612744 -45.441563 
L 304.161854 -45.441563 
L 306.710963 -45.441563 
L 309.260072 -45.441563 
L 311.809181 -45.441563 
L 314.35829 -45.441563 
L 316.907399 -45.441563 
L 319.456509 -45.441563 
L 322.005618 -45.441563 
L 324.554727 -45.441563 
L 327.103836 -45.441563 
L 329.652945 -45.441563 
L 332.202055 -45.441563 
L 334.751164 -45.441563 
L 337.300273 -45.441563 
L 339.849382 -45.441563 
L 342.398491 -45.441563 
L 344.947601 -45.441563 
L 347.49671 -45.441563 
L 350.045819 -45.441563 
L 352.594928 -45.441563 
L 355.144037 -45.441563 
L 357.693146 -45.441563 
L 360.242256 -45.441563 
L 362.791365 -45.441563 
L 365.340474 -45.441563 
L 367.889583 -45.441563 
L 370.438692 -45.441563 
L 372.987802 -45.441563 
L 375.536911 -45.441563 
L 378.08602 -45.441563 
L 380.635129 -45.441563 
L 383.184238 -45.441563 
L 385.733347 -45.441563 
L 388.282457 -45.441563 
L 390.831566 -45.441563 
L 393.380675 -45.441563 
L 395.929784 -45.441563 
L 398.478893 -45.441563 
L 401.028003 -45.441563 
L 403.577112 -45.441563 
L 406.126221 -45.441563 
L 408.67533 -45.441563 
L 411.224439 -45.441563 
L 413.773548 -45.441563 
L 416.322658 -45.441563 
L 418.871767 -45.441563 
L 421.420876 -45.441563 
L 423.969985 -45.441563 
L 426.519094 -45.441563 
L 429.068204 -45.441563 
L 431.617313 -45.441563 
L 434.166422 -45.441563 
L 436.715531 -45.441563 
L 439.26464 -45.441563 
L 441.813749 -45.441563 
L 444.362859 -45.441563 
L 446.911968 -45.441563 
L 449.461077 -45.441563 
L 452.010186 -45.441563 
L 454.559295 -45.441563 
L 457.108405 -45.441563 
L 459.657514 -45.441563 
L 462.206623 -45.441563 
L 464.755732 -45.441563 
L 467.304841 -45.441563 
L 469.85395 -45.441563 
L 472.40306 -45.441563 
L 474.952169 -45.441563 
L 477.501278 -45.441563 
L 480.050387 -45.441563 
L 482.599496 -45.441563 
L 485.148606 -45.441563 
L 487.697715 -45.441563 
L 490.246824 -45.441563 
L 492.795933 -45.441563 
L 495.345042 -45.441563 
L 497.894151 -45.441563 
L 500.443261 -45.441563 
L 502.99237 -45.441563 
L 505.541479 -45.441563 
L 508.090588 -45.441563 
L 510.639697 -45.441563 
L 513.188807 -45.441563 
L 515.737916 -45.441563 
L 518.287025 -45.441563 
L 520.836134 -45.441563 
L 523.385243 -45.441563 
L 525.934352 -45.441563 
L 528.483462 -45.441563 
L 531.032571 -45.441563 
L 533.58168 -45.441563 
L 536.130789 -45.441563 
L 538.679898 -45.441563 
L 541.229008 -45.441563 
L 543.778117 -45.441563 
L 546.327226 -45.441563 
L 548.876335 -45.441563 
L 551.425444 -45.441563 
L 553.974553 -45.441563 
L 556.523663 -45.441563 
L 559.072772 -45.441563 
L 561.621881 -45.441563 
L 564.17099 -45.441563 
L 566.720099 -45.441563 
L 569.269209 -45.441563 
L 571.818318 -45.441563 
L 574.367427 -45.441563 
L 576.916536 -45.441563 
L 579.465645 -45.441563 
L 582.014754 -45.441563 
L 584.563864 -45.441563 
L 584.563864 -45.515359 
L 584.563864 -45.515359 
L 582.014754 -45.546165 
L 579.465645 -45.588322 
L 576.916536 -45.645383 
L 574.367427 -45.721774 
L 571.818318 -45.822925 
L 569.269209 -45.9554 
L 566.720099 -46.127008 
L 564.17099 -46.346884 
L 561.621881 -46.625534 
L 559.072772 -46.974823 
L 556.523663 -47.407894 
L 553.974553 -47.939002 
L 551.425444 -48.583266 
L 548.876335 -49.356311 
L 546.327226 -50.273825 
L 543.778117 -51.351021 
L 541.229008 -52.602025 
L 538.679898 -54.039216 
L 536.130789 -55.672548 
L 533.58168 -57.508885 
L 531.032571 -59.551402 
L 528.483462 -61.799081 
L 525.934352 -64.246363 
L 523.385243 -66.882969 
L 520.836134 -69.693928 
L 518.287025 -72.659837 
L 515.737916 -75.757327 
L 513.188807 -78.959751 
L 510.639697 -82.238035 
L 508.090588 -85.561678 
L 505.541479 -88.899816 
L 502.99237 -92.222321 
L 500.443261 -95.500841 
L 497.894151 -98.70975 
L 495.345042 -101.826928 
L 492.795933 -104.834353 
L 490.246824 -107.718457 
L 487.697715 -110.470254 
L 485.148606 -113.085223 
L 482.599496 -115.562988 
L 480.050387 -117.906811 
L 477.501278 -120.122944 
L 474.952169 -122.219891 
L 472.40306 -124.207626 
L 469.85395 -126.096813 
L 467.304841 -127.89807 
L 464.755732 -129.62131 
L 462.206623 -131.275194 
L 459.657514 -132.86669 
L 457.108405 -134.400769 
L 454.559295 -135.880226 
L 452.010186 -137.305616 
L 449.461077 -138.675305 
L 446.911968 -139.985609 
L 444.362859 -141.231015 
L 441.813749 -142.404468 
L 439.26464 -143.497707 
L 436.715531 -144.501633 
L 434.166422 -145.406705 
L 431.617313 -146.203355 
L 429.068204 -146.882407 
L 426.519094 -147.435508 
L 423.969985 -147.855555 
L 421.420876 -148.137142 
L 418.871767 -148.277002 
L 416.322658 -148.274487 
L 413.773548 -148.132052 
L 411.224439 -147.855779 
L 408.67533 -147.455921 
L 406.126221 -146.947468 
L 403.577112 -146.350703 
L 401.028003 -145.691722 
L 398.478893 -145.002858 
L 395.929784 -144.322953 
L 393.380675 -143.697382 
L 390.831566 -143.177762 
L 388.282457 -142.821225 
L 385.733347 -142.689206 
L 383.184238 -142.845663 
L 380.635129 -143.354715 
L 378.08602 -144.277701 
L 375.536911 -145.669763 
L 372.987802 -147.576053 
L 370.438692 -150.027793 
L 367.889583 -153.038418 
L 365.340474 -156.60012 
L 362.791365 -160.681089 
L 360.242256 -165.22378 
L 357.693146 -170.144479 
L 355.144037 -175.334381 
L 352.594928 -180.662295 
L 350.045819 -185.978979 
L 347.49671 -191.122969 
L 344.947601 -195.92764 
L 342.398491 -200.229107 
L 339.849382 -203.87449 
L 337.300273 -206.729994 
L 334.751164 -208.688248 
L 332.202055 -209.674382 
L 329.652945 -209.650389 
L 327.103836 -208.617456 
L 324.554727 -206.616098 
L 322.005618 -203.72407 
L 319.456509 -200.052241 
L 316.907399 -195.738712 
L 314.35829 -190.941632 
L 311.809181 -185.831198 
L 309.260072 -180.581391 
L 306.710963 -175.361963 
L 304.161854 -170.331161 
L 301.612744 -165.629559 
L 299.063635 -161.375279 
L 296.514526 -157.660754 
L 293.965417 -154.551063 
L 291.416308 -152.083757 
L 288.867198 -150.270029 
L 286.318089 -149.096982 
L 283.76898 -148.530736 
L 281.219871 -148.520096 
L 278.670762 -149.000508 
L 276.121653 -149.89806 
L 273.572543 -151.133322 
L 271.023434 -152.624864 
L 268.474325 -154.292348 
L 265.925216 -156.059112 
L 263.376107 -157.854238 
L 260.826997 -159.614092 
L 258.277888 -161.283382 
L 255.728779 -162.815778 
L 253.17967 -164.174154 
L 250.630561 -165.330511 
L 248.081452 -166.265646 
L 245.532342 -166.968621 
L 242.983233 -167.436077 
L 240.434124 -167.671425 
L 237.885015 -167.683951 
L 235.335906 -167.487848 
L 232.786796 -167.101187 
L 230.237687 -166.544843 
L 227.688578 -165.841382 
L 225.139469 -165.013927 
L 222.59036 -164.085019 
L 220.041251 -163.075495 
L 217.492141 -162.003423 
L 214.943032 -160.883134 
L 212.393923 -159.724385 
L 209.844814 -158.531713 
L 207.295705 -157.304019 
L 204.746595 -156.034424 
L 202.197486 -154.710416 
L 199.648377 -153.314325 
L 197.099268 -151.824096 
L 194.550159 -150.214361 
L 192.00105 -148.457753 
L 189.45194 -146.526412 
L 186.902831 -144.393602 
L 184.353722 -142.035353 
L 181.804613 -139.43204 
L 179.255504 -136.569801 
L 176.706394 -133.441715 
L 174.157285 -130.048664 
L 171.608176 -126.399825 
L 169.059067 -122.512766 
L 166.509958 -118.413129 
L 163.960849 -114.133922 
L 161.411739 -109.714457 
L 158.86263 -105.199001 
L 156.313521 -100.635207 
L 153.764412 -96.072416 
L 151.215303 -91.559925 
L 148.666193 -87.14531 
L 146.117084 -82.872884 
L 143.567975 -78.782362 
L 141.018866 -74.907801 
L 138.469757 -71.276826 
L 135.920648 -67.910188 
L 133.371538 -64.821627 
L 130.822429 -62.018039 
L 128.27332 -59.499897 
L 125.724211 -57.261887 
L 123.175102 -55.293706 
L 120.625992 -53.580958 
L 118.076883 -52.106106 
L 115.527774 -50.849406 
L 112.978665 -49.789809 
L 110.429556 -48.905764 
L 107.880447 -48.17592 
L 105.331337 -47.579706 
L 102.782228 -47.097772 
L 100.233119 -46.712312 
L 97.68401 -46.40726 
L 95.134901 -46.16839 
L 92.585791 -45.983317 
L 90.036682 -45.841444 
L 87.487573 -45.733837 
L 84.938464 -45.653087 
L 82.389355 -45.593133 
L 79.840246 -45.549094 
L 77.291136 -45.51709 
z
" style="stroke: #0173b2; stroke-width: 0.8"/>
    </defs>
    <g clip-path="url(#p586830bad4)">
     <use xlink:href="#m4b662d86ac" x="0" y="422.001562" style="fill: #0173b2; fill-opacity: 0.25; stroke: #0173b2; stroke-width: 0.8"/>
    </g>
   </g>
   <g id="patch_3">
    <path d="M 51.9275 376.56 
L 51.9275 50.4 
" style="fill: none; stroke: #cccccc; stroke-linejoin: miter; stroke-linecap: square"/>
   </g>
   <g id="patch_4">
    <path d="M 51.9275 376.56 
L 609.9275 376.56 
" style="fill: none; stroke: #cccccc; stroke-linejoin: miter; stroke-linecap: square"/>
   </g>
   <g id="text_18">
    <!-- on twitter posts about economy -->
    <g style="fill: #0000ff" transform="translate(220.20875 44.4)scale(0.16 -0.16)">
     <defs>
      <path id="ArialMT-6f" d="M 213 1659 
Q 213 2581 725 3025 
Q 1153 3394 1769 3394 
Q 2453 3394 2887 2945 
Q 3322 2497 3322 1706 
Q 3322 1066 3130 698 
Q 2938 331 2570 128 
Q 2203 -75 1769 -75 
Q 1072 -75 642 372 
Q 213 819 213 1659 
z
M 791 1659 
Q 791 1022 1069 705 
Q 1347 388 1769 388 
Q 2188 388 2466 706 
Q 2744 1025 2744 1678 
Q 2744 2294 2464 2611 
Q 2184 2928 1769 2928 
Q 1347 2928 1069 2612 
Q 791 2297 791 1659 
z
" transform="scale(0.015625)"/>
      <path id="ArialMT-6e" d="M 422 0 
L 422 3319 
L 928 3319 
L 928 2847 
Q 1294 3394 1984 3394 
Q 2284 3394 2536 3286 
Q 2788 3178 2913 3003 
Q 3038 2828 3088 2588 
Q 3119 2431 3119 2041 
L 3119 0 
L 2556 0 
L 2556 2019 
Q 2556 2363 2490 2533 
Q 2425 2703 2258 2804 
Q 2091 2906 1866 2906 
Q 1506 2906 1245 2678 
Q 984 2450 984 1813 
L 984 0 
L 422 0 
z
" transform="scale(0.015625)"/>
      <path id="ArialMT-20" transform="scale(0.015625)"/>
      <path id="ArialMT-74" d="M 1650 503 
L 1731 6 
Q 1494 -44 1306 -44 
Q 1000 -44 831 53 
Q 663 150 594 308 
Q 525 466 525 972 
L 525 2881 
L 113 2881 
L 113 3319 
L 525 3319 
L 525 4141 
L 1084 4478 
L 1084 3319 
L 1650 3319 
L 1650 2881 
L 1084 2881 
L 1084 941 
Q 1084 700 1114 631 
Q 1144 563 1211 522 
Q 1278 481 1403 481 
Q 1497 481 1650 503 
z
" transform="scale(0.015625)"/>
      <path id="ArialMT-77" d="M 1034 0 
L 19 3319 
L 600 3319 
L 1128 1403 
L 1325 691 
Q 1338 744 1497 1375 
L 2025 3319 
L 2603 3319 
L 3100 1394 
L 3266 759 
L 3456 1400 
L 4025 3319 
L 4572 3319 
L 3534 0 
L 2950 0 
L 2422 1988 
L 2294 2553 
L 1622 0 
L 1034 0 
z
" transform="scale(0.015625)"/>
      <path id="ArialMT-69" d="M 425 3934 
L 425 4581 
L 988 4581 
L 988 3934 
L 425 3934 
z
M 425 0 
L 425 3319 
L 988 3319 
L 988 0 
L 425 0 
z
" transform="scale(0.015625)"/>
      <path id="ArialMT-65" d="M 2694 1069 
L 3275 997 
Q 3138 488 2766 206 
Q 2394 -75 1816 -75 
Q 1088 -75 661 373 
Q 234 822 234 1631 
Q 234 2469 665 2931 
Q 1097 3394 1784 3394 
Q 2450 3394 2872 2941 
Q 3294 2488 3294 1666 
Q 3294 1616 3291 1516 
L 816 1516 
Q 847 969 1125 678 
Q 1403 388 1819 388 
Q 2128 388 2347 550 
Q 2566 713 2694 1069 
z
M 847 1978 
L 2700 1978 
Q 2663 2397 2488 2606 
Q 2219 2931 1791 2931 
Q 1403 2931 1139 2672 
Q 875 2413 847 1978 
z
" transform="scale(0.015625)"/>
      <path id="ArialMT-72" d="M 416 0 
L 416 3319 
L 922 3319 
L 922 2816 
Q 1116 3169 1280 3281 
Q 1444 3394 1641 3394 
Q 1925 3394 2219 3213 
L 2025 2691 
Q 1819 2813 1613 2813 
Q 1428 2813 1281 2702 
Q 1134 2591 1072 2394 
Q 978 2094 978 1738 
L 978 0 
L 416 0 
z
" transform="scale(0.015625)"/>
      <path id="ArialMT-70" d="M 422 -1272 
L 422 3319 
L 934 3319 
L 934 2888 
Q 1116 3141 1344 3267 
Q 1572 3394 1897 3394 
Q 2322 3394 2647 3175 
Q 2972 2956 3137 2557 
Q 3303 2159 3303 1684 
Q 3303 1175 3120 767 
Q 2938 359 2589 142 
Q 2241 -75 1856 -75 
Q 1575 -75 1351 44 
Q 1128 163 984 344 
L 984 -1272 
L 422 -1272 
z
M 931 1641 
Q 931 1000 1190 694 
Q 1450 388 1819 388 
Q 2194 388 2461 705 
Q 2728 1022 2728 1688 
Q 2728 2322 2467 2637 
Q 2206 2953 1844 2953 
Q 1484 2953 1207 2617 
Q 931 2281 931 1641 
z
" transform="scale(0.015625)"/>
      <path id="ArialMT-73" d="M 197 991 
L 753 1078 
Q 800 744 1014 566 
Q 1228 388 1613 388 
Q 2000 388 2187 545 
Q 2375 703 2375 916 
Q 2375 1106 2209 1216 
Q 2094 1291 1634 1406 
Q 1016 1563 777 1677 
Q 538 1791 414 1992 
Q 291 2194 291 2438 
Q 291 2659 392 2848 
Q 494 3038 669 3163 
Q 800 3259 1026 3326 
Q 1253 3394 1513 3394 
Q 1903 3394 2198 3281 
Q 2494 3169 2634 2976 
Q 2775 2784 2828 2463 
L 2278 2388 
Q 2241 2644 2061 2787 
Q 1881 2931 1553 2931 
Q 1166 2931 1000 2803 
Q 834 2675 834 2503 
Q 834 2394 903 2306 
Q 972 2216 1119 2156 
Q 1203 2125 1616 2013 
Q 2213 1853 2448 1751 
Q 2684 1650 2818 1456 
Q 2953 1263 2953 975 
Q 2953 694 2789 445 
Q 2625 197 2315 61 
Q 2006 -75 1616 -75 
Q 969 -75 630 194 
Q 291 463 197 991 
z
" transform="scale(0.015625)"/>
      <path id="ArialMT-61" d="M 2588 409 
Q 2275 144 1986 34 
Q 1697 -75 1366 -75 
Q 819 -75 525 192 
Q 231 459 231 875 
Q 231 1119 342 1320 
Q 453 1522 633 1644 
Q 813 1766 1038 1828 
Q 1203 1872 1538 1913 
Q 2219 1994 2541 2106 
Q 2544 2222 2544 2253 
Q 2544 2597 2384 2738 
Q 2169 2928 1744 2928 
Q 1347 2928 1158 2789 
Q 969 2650 878 2297 
L 328 2372 
Q 403 2725 575 2942 
Q 747 3159 1072 3276 
Q 1397 3394 1825 3394 
Q 2250 3394 2515 3294 
Q 2781 3194 2906 3042 
Q 3031 2891 3081 2659 
Q 3109 2516 3109 2141 
L 3109 1391 
Q 3109 606 3145 398 
Q 3181 191 3288 0 
L 2700 0 
Q 2613 175 2588 409 
z
M 2541 1666 
Q 2234 1541 1622 1453 
Q 1275 1403 1131 1340 
Q 988 1278 909 1158 
Q 831 1038 831 891 
Q 831 666 1001 516 
Q 1172 366 1500 366 
Q 1825 366 2078 508 
Q 2331 650 2450 897 
Q 2541 1088 2541 1459 
L 2541 1666 
z
" transform="scale(0.015625)"/>
      <path id="ArialMT-62" d="M 941 0 
L 419 0 
L 419 4581 
L 981 4581 
L 981 2947 
Q 1338 3394 1891 3394 
Q 2197 3394 2470 3270 
Q 2744 3147 2920 2923 
Q 3097 2700 3197 2384 
Q 3297 2069 3297 1709 
Q 3297 856 2875 390 
Q 2453 -75 1863 -75 
Q 1275 -75 941 416 
L 941 0 
z
M 934 1684 
Q 934 1088 1097 822 
Q 1363 388 1816 388 
Q 2184 388 2453 708 
Q 2722 1028 2722 1663 
Q 2722 2313 2464 2622 
Q 2206 2931 1841 2931 
Q 1472 2931 1203 2611 
Q 934 2291 934 1684 
z
" transform="scale(0.015625)"/>
      <path id="ArialMT-75" d="M 2597 0 
L 2597 488 
Q 2209 -75 1544 -75 
Q 1250 -75 995 37 
Q 741 150 617 320 
Q 494 491 444 738 
Q 409 903 409 1263 
L 409 3319 
L 972 3319 
L 972 1478 
Q 972 1038 1006 884 
Q 1059 663 1231 536 
Q 1403 409 1656 409 
Q 1909 409 2131 539 
Q 2353 669 2445 892 
Q 2538 1116 2538 1541 
L 2538 3319 
L 3100 3319 
L 3100 0 
L 2597 0 
z
" transform="scale(0.015625)"/>
      <path id="ArialMT-63" d="M 2588 1216 
L 3141 1144 
Q 3050 572 2676 248 
Q 2303 -75 1759 -75 
Q 1078 -75 664 370 
Q 250 816 250 1647 
Q 250 2184 428 2587 
Q 606 2991 970 3192 
Q 1334 3394 1763 3394 
Q 2303 3394 2647 3120 
Q 2991 2847 3088 2344 
L 2541 2259 
Q 2463 2594 2264 2762 
Q 2066 2931 1784 2931 
Q 1359 2931 1093 2626 
Q 828 2322 828 1663 
Q 828 994 1084 691 
Q 1341 388 1753 388 
Q 2084 388 2306 591 
Q 2528 794 2588 1216 
z
" transform="scale(0.015625)"/>
      <path id="ArialMT-6d" d="M 422 0 
L 422 3319 
L 925 3319 
L 925 2853 
Q 1081 3097 1340 3245 
Q 1600 3394 1931 3394 
Q 2300 3394 2536 3241 
Q 2772 3088 2869 2813 
Q 3263 3394 3894 3394 
Q 4388 3394 4653 3120 
Q 4919 2847 4919 2278 
L 4919 0 
L 4359 0 
L 4359 2091 
Q 4359 2428 4304 2576 
Q 4250 2725 4106 2815 
Q 3963 2906 3769 2906 
Q 3419 2906 3187 2673 
Q 2956 2441 2956 1928 
L 2956 0 
L 2394 0 
L 2394 2156 
Q 2394 2531 2256 2718 
Q 2119 2906 1806 2906 
Q 1569 2906 1367 2781 
Q 1166 2656 1075 2415 
Q 984 2175 984 1722 
L 984 0 
L 422 0 
z
" transform="scale(0.015625)"/>
      <path id="ArialMT-79" d="M 397 -1278 
L 334 -750 
Q 519 -800 656 -800 
Q 844 -800 956 -737 
Q 1069 -675 1141 -563 
Q 1194 -478 1313 -144 
Q 1328 -97 1363 -6 
L 103 3319 
L 709 3319 
L 1400 1397 
Q 1534 1031 1641 628 
Q 1738 1016 1872 1384 
L 2581 3319 
L 3144 3319 
L 1881 -56 
Q 1678 -603 1566 -809 
Q 1416 -1088 1222 -1217 
Q 1028 -1347 759 -1347 
Q 597 -1347 397 -1278 
z
" transform="scale(0.015625)"/>
     </defs>
     <use xlink:href="#ArialMT-6f"/>
     <use xlink:href="#ArialMT-6e" x="55.615234"/>
     <use xlink:href="#ArialMT-20" x="111.230469"/>
     <use xlink:href="#ArialMT-74" x="139.013672"/>
     <use xlink:href="#ArialMT-77" x="166.796875"/>
     <use xlink:href="#ArialMT-69" x="239.013672"/>
     <use xlink:href="#ArialMT-74" x="261.230469"/>
     <use xlink:href="#ArialMT-74" x="289.013672"/>
     <use xlink:href="#ArialMT-65" x="316.796875"/>
     <use xlink:href="#ArialMT-72" x="372.412109"/>
     <use xlink:href="#ArialMT-20" x="405.712891"/>
     <use xlink:href="#ArialMT-70" x="433.496094"/>
     <use xlink:href="#ArialMT-6f" x="489.111328"/>
     <use xlink:href="#ArialMT-73" x="544.726562"/>
     <use xlink:href="#ArialMT-74" x="594.726562"/>
     <use xlink:href="#ArialMT-73" x="622.509766"/>
     <use xlink:href="#ArialMT-20" x="672.509766"/>
     <use xlink:href="#ArialMT-61" x="700.292969"/>
     <use xlink:href="#ArialMT-62" x="755.908203"/>
     <use xlink:href="#ArialMT-6f" x="811.523438"/>
     <use xlink:href="#ArialMT-75" x="867.138672"/>
     <use xlink:href="#ArialMT-74" x="922.753906"/>
     <use xlink:href="#ArialMT-20" x="950.537109"/>
     <use xlink:href="#ArialMT-65" x="978.320312"/>
     <use xlink:href="#ArialMT-63" x="1033.935547"/>
     <use xlink:href="#ArialMT-6f" x="1083.935547"/>
     <use xlink:href="#ArialMT-6e" x="1139.550781"/>
     <use xlink:href="#ArialMT-6f" x="1195.166016"/>
     <use xlink:href="#ArialMT-6d" x="1250.78125"/>
     <use xlink:href="#ArialMT-79" x="1334.082031"/>
    </g>
   </g>
   <g id="legend_1">
    <g id="patch_5">
     <path d="M 499.559375 101.206875 
L 600.1275 101.206875 
Q 602.9275 101.206875 602.9275 98.406875 
L 602.9275 60.2 
Q 602.9275 57.4 600.1275 57.4 
L 499.559375 57.4 
Q 496.759375 57.4 496.759375 60.2 
L 496.759375 98.406875 
Q 496.759375 101.206875 499.559375 101.206875 
z
" style="fill: #ffffff; opacity: 0.8; stroke: #cccccc; stroke-width: 0.8; stroke-linejoin: miter"/>
    </g>
    <g id="patch_6">
     <path d="M 502.359375 73.020937 
L 530.359375 73.020937 
L 530.359375 63.220937 
L 502.359375 63.220937 
z
" style="fill: #d55e00; fill-opacity: 0.25; stroke: #d55e00; stroke-width: 0.8; stroke-linejoin: miter"/>
    </g>
    <g id="text_19">
     <!-- roBERTa -->
     <g style="fill: #262626" transform="translate(541.559375 73.020937)scale(0.14 -0.14)">
      <defs>
       <path id="ArialMT-42" d="M 469 0 
L 469 4581 
L 2188 4581 
Q 2713 4581 3030 4442 
Q 3347 4303 3526 4014 
Q 3706 3725 3706 3409 
Q 3706 3116 3547 2856 
Q 3388 2597 3066 2438 
Q 3481 2316 3704 2022 
Q 3928 1728 3928 1328 
Q 3928 1006 3792 729 
Q 3656 453 3456 303 
Q 3256 153 2954 76 
Q 2653 0 2216 0 
L 469 0 
z
M 1075 2656 
L 2066 2656 
Q 2469 2656 2644 2709 
Q 2875 2778 2992 2937 
Q 3109 3097 3109 3338 
Q 3109 3566 3000 3739 
Q 2891 3913 2687 3977 
Q 2484 4041 1991 4041 
L 1075 4041 
L 1075 2656 
z
M 1075 541 
L 2216 541 
Q 2509 541 2628 563 
Q 2838 600 2978 687 
Q 3119 775 3209 942 
Q 3300 1109 3300 1328 
Q 3300 1584 3169 1773 
Q 3038 1963 2805 2039 
Q 2572 2116 2134 2116 
L 1075 2116 
L 1075 541 
z
" transform="scale(0.015625)"/>
       <path id="ArialMT-45" d="M 506 0 
L 506 4581 
L 3819 4581 
L 3819 4041 
L 1113 4041 
L 1113 2638 
L 3647 2638 
L 3647 2100 
L 1113 2100 
L 1113 541 
L 3925 541 
L 3925 0 
L 506 0 
z
" transform="scale(0.015625)"/>
       <path id="ArialMT-52" d="M 503 0 
L 503 4581 
L 2534 4581 
Q 3147 4581 3465 4457 
Q 3784 4334 3975 4021 
Q 4166 3709 4166 3331 
Q 4166 2844 3850 2509 
Q 3534 2175 2875 2084 
Q 3116 1969 3241 1856 
Q 3506 1613 3744 1247 
L 4541 0 
L 3778 0 
L 3172 953 
Q 2906 1366 2734 1584 
Q 2563 1803 2427 1890 
Q 2291 1978 2150 2013 
Q 2047 2034 1813 2034 
L 1109 2034 
L 1109 0 
L 503 0 
z
M 1109 2559 
L 2413 2559 
Q 2828 2559 3062 2645 
Q 3297 2731 3419 2920 
Q 3541 3109 3541 3331 
Q 3541 3656 3305 3865 
Q 3069 4075 2559 4075 
L 1109 4075 
L 1109 2559 
z
" transform="scale(0.015625)"/>
       <path id="ArialMT-54" d="M 1659 0 
L 1659 4041 
L 150 4041 
L 150 4581 
L 3781 4581 
L 3781 4041 
L 2266 4041 
L 2266 0 
L 1659 0 
z
" transform="scale(0.015625)"/>
      </defs>
      <use xlink:href="#ArialMT-72"/>
      <use xlink:href="#ArialMT-6f" x="33.300781"/>
      <use xlink:href="#ArialMT-42" x="88.916016"/>
      <use xlink:href="#ArialMT-45" x="155.615234"/>
      <use xlink:href="#ArialMT-52" x="222.314453"/>
      <use xlink:href="#ArialMT-54" x="292.78125"/>
      <use xlink:href="#ArialMT-61" x="342.740234"/>
     </g>
    </g>
    <g id="patch_7">
     <path d="M 502.359375 92.824375 
L 530.359375 92.824375 
L 530.359375 83.024375 
L 502.359375 83.024375 
z
" style="fill: #0173b2; fill-opacity: 0.25; stroke: #0173b2; stroke-width: 0.8; stroke-linejoin: miter"/>
    </g>
    <g id="text_20">
     <!-- VADER -->
     <g style="fill: #262626" transform="translate(541.559375 92.824375)scale(0.14 -0.14)">
      <defs>
       <path id="ArialMT-56" d="M 1803 0 
L 28 4581 
L 684 4581 
L 1875 1253 
Q 2019 853 2116 503 
Q 2222 878 2363 1253 
L 3600 4581 
L 4219 4581 
L 2425 0 
L 1803 0 
z
" transform="scale(0.015625)"/>
       <path id="ArialMT-41" d="M -9 0 
L 1750 4581 
L 2403 4581 
L 4278 0 
L 3588 0 
L 3053 1388 
L 1138 1388 
L 634 0 
L -9 0 
z
M 1313 1881 
L 2866 1881 
L 2388 3150 
Q 2169 3728 2063 4100 
Q 1975 3659 1816 3225 
L 1313 1881 
z
" transform="scale(0.015625)"/>
       <path id="ArialMT-44" d="M 494 0 
L 494 4581 
L 2072 4581 
Q 2606 4581 2888 4516 
Q 3281 4425 3559 4188 
Q 3922 3881 4101 3404 
Q 4281 2928 4281 2316 
Q 4281 1794 4159 1391 
Q 4038 988 3847 723 
Q 3656 459 3429 307 
Q 3203 156 2883 78 
Q 2563 0 2147 0 
L 494 0 
z
M 1100 541 
L 2078 541 
Q 2531 541 2789 625 
Q 3047 709 3200 863 
Q 3416 1078 3536 1442 
Q 3656 1806 3656 2325 
Q 3656 3044 3420 3430 
Q 3184 3816 2847 3947 
Q 2603 4041 2063 4041 
L 1100 4041 
L 1100 541 
z
" transform="scale(0.015625)"/>
      </defs>
      <use xlink:href="#ArialMT-56"/>
      <use xlink:href="#ArialMT-41" x="59.324219"/>
      <use xlink:href="#ArialMT-44" x="126.023438"/>
      <use xlink:href="#ArialMT-45" x="198.240234"/>
      <use xlink:href="#ArialMT-52" x="264.939453"/>
     </g>
    </g>
   </g>
  </g>
  <g id="text_21">
   <!-- Comparison of two different models: VADER vs roBERTa -->
   <g style="fill: #0000ff" transform="translate(95.331406 20.303437)scale(0.18 -0.18)">
    <defs>
     <path id="ArialMT-43" d="M 3763 1606 
L 4369 1453 
Q 4178 706 3683 314 
Q 3188 -78 2472 -78 
Q 1731 -78 1267 223 
Q 803 525 561 1097 
Q 319 1669 319 2325 
Q 319 3041 592 3573 
Q 866 4106 1370 4382 
Q 1875 4659 2481 4659 
Q 3169 4659 3637 4309 
Q 4106 3959 4291 3325 
L 3694 3184 
Q 3534 3684 3231 3912 
Q 2928 4141 2469 4141 
Q 1941 4141 1586 3887 
Q 1231 3634 1087 3207 
Q 944 2781 944 2328 
Q 944 1744 1114 1308 
Q 1284 872 1643 656 
Q 2003 441 2422 441 
Q 2931 441 3284 734 
Q 3638 1028 3763 1606 
z
" transform="scale(0.015625)"/>
     <path id="ArialMT-66" d="M 556 0 
L 556 2881 
L 59 2881 
L 59 3319 
L 556 3319 
L 556 3672 
Q 556 4006 616 4169 
Q 697 4388 901 4523 
Q 1106 4659 1475 4659 
Q 1713 4659 2000 4603 
L 1916 4113 
Q 1741 4144 1584 4144 
Q 1328 4144 1222 4034 
Q 1116 3925 1116 3625 
L 1116 3319 
L 1763 3319 
L 1763 2881 
L 1116 2881 
L 1116 0 
L 556 0 
z
" transform="scale(0.015625)"/>
     <path id="ArialMT-64" d="M 2575 0 
L 2575 419 
Q 2259 -75 1647 -75 
Q 1250 -75 917 144 
Q 584 363 401 755 
Q 219 1147 219 1656 
Q 219 2153 384 2558 
Q 550 2963 881 3178 
Q 1213 3394 1622 3394 
Q 1922 3394 2156 3267 
Q 2391 3141 2538 2938 
L 2538 4581 
L 3097 4581 
L 3097 0 
L 2575 0 
z
M 797 1656 
Q 797 1019 1065 703 
Q 1334 388 1700 388 
Q 2069 388 2326 689 
Q 2584 991 2584 1609 
Q 2584 2291 2321 2609 
Q 2059 2928 1675 2928 
Q 1300 2928 1048 2622 
Q 797 2316 797 1656 
z
" transform="scale(0.015625)"/>
     <path id="ArialMT-6c" d="M 409 0 
L 409 4581 
L 972 4581 
L 972 0 
L 409 0 
z
" transform="scale(0.015625)"/>
     <path id="ArialMT-3a" d="M 578 2678 
L 578 3319 
L 1219 3319 
L 1219 2678 
L 578 2678 
z
M 578 0 
L 578 641 
L 1219 641 
L 1219 0 
L 578 0 
z
" transform="scale(0.015625)"/>
     <path id="ArialMT-76" d="M 1344 0 
L 81 3319 
L 675 3319 
L 1388 1331 
Q 1503 1009 1600 663 
Q 1675 925 1809 1294 
L 2547 3319 
L 3125 3319 
L 1869 0 
L 1344 0 
z
" transform="scale(0.015625)"/>
    </defs>
    <use xlink:href="#ArialMT-43"/>
    <use xlink:href="#ArialMT-6f" x="72.216797"/>
    <use xlink:href="#ArialMT-6d" x="127.832031"/>
    <use xlink:href="#ArialMT-70" x="211.132812"/>
    <use xlink:href="#ArialMT-61" x="266.748047"/>
    <use xlink:href="#ArialMT-72" x="322.363281"/>
    <use xlink:href="#ArialMT-69" x="355.664062"/>
    <use xlink:href="#ArialMT-73" x="377.880859"/>
    <use xlink:href="#ArialMT-6f" x="427.880859"/>
    <use xlink:href="#ArialMT-6e" x="483.496094"/>
    <use xlink:href="#ArialMT-20" x="539.111328"/>
    <use xlink:href="#ArialMT-6f" x="566.894531"/>
    <use xlink:href="#ArialMT-66" x="622.509766"/>
    <use xlink:href="#ArialMT-20" x="650.292969"/>
    <use xlink:href="#ArialMT-74" x="678.076172"/>
    <use xlink:href="#ArialMT-77" x="705.859375"/>
    <use xlink:href="#ArialMT-6f" x="778.076172"/>
    <use xlink:href="#ArialMT-20" x="833.691406"/>
    <use xlink:href="#ArialMT-64" x="861.474609"/>
    <use xlink:href="#ArialMT-69" x="917.089844"/>
    <use xlink:href="#ArialMT-66" x="939.306641"/>
    <use xlink:href="#ArialMT-66" x="965.339844"/>
    <use xlink:href="#ArialMT-65" x="993.123047"/>
    <use xlink:href="#ArialMT-72" x="1048.738281"/>
    <use xlink:href="#ArialMT-65" x="1082.039062"/>
    <use xlink:href="#ArialMT-6e" x="1137.654297"/>
    <use xlink:href="#ArialMT-74" x="1193.269531"/>
    <use xlink:href="#ArialMT-20" x="1221.052734"/>
    <use xlink:href="#ArialMT-6d" x="1248.835938"/>
    <use xlink:href="#ArialMT-6f" x="1332.136719"/>
    <use xlink:href="#ArialMT-64" x="1387.751953"/>
    <use xlink:href="#ArialMT-65" x="1443.367188"/>
    <use xlink:href="#ArialMT-6c" x="1498.982422"/>
    <use xlink:href="#ArialMT-73" x="1521.199219"/>
    <use xlink:href="#ArialMT-3a" x="1571.199219"/>
    <use xlink:href="#ArialMT-20" x="1598.982422"/>
    <use xlink:href="#ArialMT-56" x="1626.765625"/>
    <use xlink:href="#ArialMT-41" x="1686.089844"/>
    <use xlink:href="#ArialMT-44" x="1752.789062"/>
    <use xlink:href="#ArialMT-45" x="1825.005859"/>
    <use xlink:href="#ArialMT-52" x="1891.705078"/>
    <use xlink:href="#ArialMT-20" x="1963.921875"/>
    <use xlink:href="#ArialMT-76" x="1991.705078"/>
    <use xlink:href="#ArialMT-73" x="2041.705078"/>
    <use xlink:href="#ArialMT-20" x="2091.705078"/>
    <use xlink:href="#ArialMT-72" x="2119.488281"/>
    <use xlink:href="#ArialMT-6f" x="2152.789062"/>
    <use xlink:href="#ArialMT-42" x="2208.404297"/>
    <use xlink:href="#ArialMT-45" x="2275.103516"/>
    <use xlink:href="#ArialMT-52" x="2341.802734"/>
    <use xlink:href="#ArialMT-54" x="2412.269531"/>
    <use xlink:href="#ArialMT-61" x="2462.228516"/>
   </g>
  </g>
 </g>
 <defs>
  <clipPath id="p586830bad4">
   <rect x="51.9275" y="50.4" width="558" height="326.16"/>
  </clipPath>
 </defs>
</svg>
